<?xml version="1.0" encoding="utf-8"?>
<!-- Generator: Adobe Illustrator 17.0.0, SVG Export Plug-In . SVG Version: 6.00 Build 0)  -->
<!DOCTYPE svg PUBLIC "-//W3C//DTD SVG 1.1//EN" "http://www.w3.org/Graphics/SVG/1.1/DTD/svg11.dtd">
<svg version="1.1" id="Layer_1" xmlns="http://www.w3.org/2000/svg" xmlns:xlink="http://www.w3.org/1999/xlink" x="0px" y="0px"
	 width="100px" height="100px" viewBox="0 0 100 100" enable-background="new 0 0 100 100" xml:space="preserve">
<circle fill="#48A4D8" cx="50" cy="50" r="50"/>
<circle fill="none" stroke="#FFFFFF" stroke-width="1.1688" stroke-miterlimit="10" cx="50" cy="50" r="43.516"/>
<path fill="#FFFFFF" d="M27.426,42.226c0.353,0.182,0.744,0.277,1.142,0.276c1.061,0,2.004-0.673,2.349-1.676l6.552-0.102
	l-1.143,0.945c-0.315,0.259-0.396,0.707-0.192,1.06l1.557,2.689l0.034,3.749h-4.158c-0.049,0.005-0.097,0.015-0.144,0.029
	c-0.393-1.158-1.567-1.861-2.774-1.662c-1.206,0.199-2.092,1.243-2.092,2.466s0.885,2.267,2.092,2.466
	c1.207,0.199,2.38-0.504,2.774-1.662c0.047,0.015,0.095,0.024,0.144,0.029h4.999c0.222,0,0.435-0.089,0.591-0.246
	c0.157-0.158,0.244-0.372,0.242-0.594L39.36,45.77l2.665-0.999c0.181,0.117,0.365,0.224,0.551,0.321l0.562,3.377
	c0.067,0.401,0.415,0.696,0.822,0.696h0.436v4.165h-2.499c-0.46,0-0.833,0.373-0.833,0.833v12.153l-7.254,7.254
	c-0.238,0.238-0.31,0.597-0.181,0.908c0.129,0.311,0.433,0.514,0.77,0.514h26.659c0.337,0,0.641-0.203,0.769-0.514
	c0.129-0.311,0.058-0.67-0.18-0.908l-5.588-5.588V63.56l1.865-3.107c3.147,1.899,5.049,2.876,5.633,2.876h4.999
	c0.46,0,0.833-0.373,0.833-0.833v-4.653l1.421-1.421c0.156-0.157,0.244-0.368,0.245-0.59v-2.499h1.217
	c0.564,0,1.09-0.285,1.397-0.758c0.307-0.473,0.355-1.069,0.125-1.584l-2.59-5.832c0.983-1.171,1.52-2.651,1.517-4.18
	c0.019-5.514-3.099-10.558-8.039-13.008l-2.417-1.21c-0.366-0.183-0.812-0.072-1.049,0.262l-0.349,0.484h-5.642V25.84
	c0-0.46-0.373-0.833-0.833-0.833h-8.331c-0.46,0-0.833,0.373-0.833,0.833v3.332h-1.271c-0.408-0.001-0.756,0.294-0.822,0.696
	l-0.562,3.377c-0.186,0.097-0.37,0.204-0.551,0.321l-3.208-1.202c-0.381-0.143-0.81,0.011-1.014,0.363l-0.84,1.455
	c-0.021,0-0.039-0.013-0.061-0.013h-5v-2.653c1.147-0.406,1.836-1.579,1.63-2.779c-0.206-1.2-1.246-2.077-2.463-2.077
	c-1.218,0-2.258,0.876-2.463,2.077c-0.206,1.2,0.483,2.373,1.63,2.779v3.486c0,0.46,0.373,0.833,0.833,0.833h4.986
	c-0.077,0.307,0.029,0.631,0.272,0.833l2.642,2.176c0,0.061,0,0.123-0.005,0.185l-8.049,0.124c-0.379-1.056-1.415-1.731-2.533-1.649
	c-1.119,0.081-2.047,0.898-2.269,1.997C25.889,40.603,26.426,41.716,27.426,42.226z M31.067,50.833c-0.46,0-0.833-0.373-0.833-0.833
	c0-0.46,0.373-0.833,0.833-0.833c0.46,0,0.833,0.373,0.833,0.833C31.9,50.46,31.527,50.833,31.067,50.833z M31.067,28.34
	c0.46,0,0.833,0.373,0.833,0.833c0,0.46-0.373,0.833-0.833,0.833c-0.46,0-0.833-0.373-0.833-0.833
	C30.234,28.713,30.607,28.34,31.067,28.34z M46.062,49.167h1.228c0.407,0,0.754-0.294,0.821-0.696l0.563-3.378
	c0.185-0.096,0.369-0.204,0.55-0.321l3.21,1.202c0.381,0.143,0.81-0.011,1.014-0.363l0.353-0.61h3.924
	c0.061-0.005,0.122-0.017,0.181-0.037l1.486,1.98v1.389h-3.332V50h1.922l-2.231,0.892c-0.316,0.127-0.524,0.433-0.524,0.774v1.666
	h-9.164V49.167z M55.115,35.614l-0.351-0.61h2.129v3.332h-3.99l2.02-1.666C55.236,36.412,55.317,35.966,55.115,35.614z
	 M56.893,40.003v3.332h-2.129l0.351-0.61c0.202-0.352,0.121-0.798-0.192-1.056l-2.02-1.666
	C52.903,40.003,56.893,40.003,56.893,40.003z M51.305,60.586l3.088,3.088v0.488h-4.999v-9.164h1.666v4.999
	C51.061,60.218,51.149,60.43,51.305,60.586z M46.024,71.66h0.038v-0.043l3.127-3.573c0.133-0.152,0.206-0.347,0.206-0.549v-1.666
	h1.666v7.498h-6.498L46.024,71.66z M36.411,73.326l6.076-6.076c0.156-0.156,0.244-0.368,0.244-0.589V54.999h4.999v12.183
	l-1.666,1.904v-4.091h-1.666v5.999l-2.045,2.332C42.352,73.326,36.411,73.326,36.411,73.326z M59.047,73.326h-6.32v-7.497h1.666
	v2.499c0,0.221,0.088,0.433,0.244,0.589L59.047,73.326z M55.06,61.987l-2.332-2.333v-4.655h2.499v3.332
	c0,0.287,0.148,0.554,0.391,0.707c0.311,0.195,0.591,0.366,0.885,0.547L55.06,61.987z M62.156,28.569l1.781,0.892
	c4.374,2.168,7.135,6.635,7.119,11.517c0.004,1.289-0.509,2.525-1.422,3.434c-0.244,0.244-0.312,0.612-0.172,0.927l2.812,6.327
	h-2.05c-0.46,0-0.833,0.373-0.833,0.833v2.499h-0.143c-1.289,0.004-2.525-0.509-3.433-1.422c-0.327-0.316-0.846-0.311-1.168,0.01
	c-0.321,0.321-0.326,0.841-0.01,1.168c0.987,0.991,2.27,1.633,3.654,1.833l-0.321,0.321c-0.156,0.156-0.244,0.368-0.244,0.589v4.165
	l-4.087,0.005c-1.925-0.89-3.783-1.918-5.561-3.074l-0.004-0.004h-0.005c-0.392-0.238-0.786-0.48-1.174-0.721V52.23l3.641-1.456
	c0.316-0.127,0.524-0.433,0.524-0.774v-3.332c0-0.18-0.059-0.356-0.167-0.5l-2.332-3.11v-9.453L62.156,28.569z M46.896,26.674h6.665
	v1.666c0,0.46,0.373,0.833,0.833,0.833h5.284l-2.629,3.682c-0.102,0.141-0.156,0.31-0.156,0.484h-3.091l-0.353-0.61
	c-0.204-0.353-0.633-0.507-1.014-0.363l-3.207,1.202c-0.181-0.117-0.365-0.225-0.55-0.321l-0.566-3.378
	c-0.067-0.401-0.415-0.696-0.821-0.696h-0.395L46.896,26.674L46.896,26.674z M37.929,35.837l0.961-1.666l2.959,1.109
	c0.266,0.099,0.563,0.057,0.79-0.113c0.314-0.236,0.654-0.435,1.014-0.591c0.261-0.112,0.447-0.349,0.493-0.629l0.518-3.108h1.921
	l0.518,3.109c0.046,0.28,0.232,0.517,0.493,0.629c0.36,0.157,0.7,0.356,1.014,0.591c0.227,0.17,0.524,0.212,0.79,0.113l2.959-1.11
	l0.96,1.666l-2.437,2.005c-0.219,0.18-0.331,0.46-0.297,0.742c0.051,0.389,0.051,0.783,0,1.172
	c-0.034,0.282,0.079,0.562,0.297,0.742l2.437,2.003l-0.96,1.666L49.4,43.059c-0.265-0.099-0.563-0.057-0.79,0.113
	c-0.314,0.236-0.654,0.435-1.014,0.591c-0.261,0.112-0.447,0.349-0.493,0.629L46.585,47.5h-1.922l-0.517-3.109
	c-0.046-0.28-0.232-0.517-0.493-0.629c-0.36-0.157-0.7-0.355-1.014-0.591c-0.228-0.17-0.525-0.212-0.791-0.113l-2.959,1.11
	l-0.961-1.666l2.437-2.005c0.015-0.014,0.029-0.03,0.042-0.045c0.016-0.015,0.031-0.031,0.046-0.048
	c0.063-0.067,0.113-0.145,0.149-0.23l0.005-0.009c0.035-0.091,0.053-0.189,0.053-0.287c0.003-0.012,0.005-0.024,0.007-0.036
	c0-0.01-0.005-0.018-0.006-0.029c-0.001-0.01,0-0.038,0-0.057c-0.051-0.389-0.051-0.783,0-1.172
	c0.033-0.282-0.079-0.562-0.298-0.742L37.929,35.837z M27.827,39.622c0.099-0.199,0.275-0.349,0.487-0.417
	c0.426-0.109,0.864,0.133,0.999,0.552c0.135,0.419-0.079,0.87-0.489,1.031c-0.438,0.141-0.908-0.1-1.048-0.538
	C27.709,40.042,27.727,39.817,27.827,39.622z"/>
</svg>
