<?xml version="1.0" encoding="utf-8"?>
<!-- Generator: Adobe Illustrator 17.0.0, SVG Export Plug-In . SVG Version: 6.00 Build 0)  -->
<!DOCTYPE svg PUBLIC "-//W3C//DTD SVG 1.1//EN" "http://www.w3.org/Graphics/SVG/1.1/DTD/svg11.dtd">
<svg version="1.1" id="Layer_1" xmlns="http://www.w3.org/2000/svg" xmlns:xlink="http://www.w3.org/1999/xlink" x="0px" y="0px"
	 width="50px" height="50px" viewBox="0 0 50 50" enable-background="new 0 0 50 50" xml:space="preserve">
<g>
	<g id="android">
		<path fill="#FFFDFD" d="M12.567,37.407c0,1.243,0.829,2.072,2.072,2.072h2.072v7.253c0,1.658,1.451,3.108,3.108,3.108
			s3.108-1.451,3.108-3.108V39.48h4.144v7.253c0,1.658,1.451,3.108,3.108,3.108s3.108-1.451,3.108-3.108V39.48h2.072
			c1.243,0,2.072-0.829,2.072-2.072V16.685H12.567V37.407z M7.386,16.685c-1.658,0-3.108,1.451-3.108,3.108v14.506
			c0,1.658,1.451,3.108,3.108,3.108s3.108-1.451,3.108-3.108V19.794C10.494,18.136,9.044,16.685,7.386,16.685z M42.614,16.685
			c-1.658,0-3.108,1.451-3.108,3.108v14.506c0,1.658,1.451,3.108,3.108,3.108c1.658,0,3.108-1.451,3.108-3.108V19.794
			C45.722,18.136,44.272,16.685,42.614,16.685z M32.253,4.666l2.694-2.694c0.414-0.414,0.414-1.036,0-1.451
			c-0.415-0.415-1.036-0.415-1.451,0L30.388,3.63C28.937,2.594,27.072,2.18,25,2.18s-3.937,0.415-5.595,1.243l-2.901-3.108
			c-0.414-0.207-1.243-0.207-1.658,0c-0.207,0.415-0.207,1.243,0,1.658l2.694,2.694c-2.901,2.279-4.973,5.802-4.973,9.947h24.867
			C37.433,10.469,35.361,6.739,32.253,4.666z M20.856,10.469h-2.072V8.396h2.072V10.469z M31.217,10.469h-2.072V8.396h2.072V10.469z
			"/>
	</g>
</g>
</svg>
