<?xml version="1.0" encoding="utf-8"?>
<!-- Generator: Adobe Illustrator 17.0.0, SVG Export Plug-In . SVG Version: 6.00 Build 0)  -->
<!DOCTYPE svg PUBLIC "-//W3C//DTD SVG 1.1//EN" "http://www.w3.org/Graphics/SVG/1.1/DTD/svg11.dtd">
<svg version="1.1" id="Layer_1" xmlns="http://www.w3.org/2000/svg" xmlns:xlink="http://www.w3.org/1999/xlink" x="0px" y="0px"
	 width="50px" height="50px" viewBox="0 0 50 50" enable-background="new 0 0 50 50" xml:space="preserve">
<path fill="#FFFFFF" d="M24.925,0.377c-0.118,0.001-0.236,0.02-0.349,0.059l-22.411,7.8C1.69,8.4,1.392,8.875,1.454,9.375
	l3.542,29.039c0.042,0.344,0.245,0.646,0.55,0.811l18.895,10.27c0.158,0.087,0.335,0.13,0.51,0.13c0.177,0,0.355-0.044,0.514-0.132
	l18.992-10.41c0.302-0.166,0.507-0.468,0.548-0.809l3.54-29.037c0.062-0.502-0.239-0.981-0.719-1.144L25.272,0.431
	C25.159,0.394,25.042,0.376,24.925,0.377z M25,5.728l13.919,29.978h-4.751l-2.978-6.416H18.81l-2.978,6.416h-4.751L25,5.728z
	 M25,15.899L20.803,25h8.394L25,15.899z"/>
</svg>
