<?xml version="1.0" encoding="utf-8"?>
<!-- Generator: Adobe Illustrator 17.0.0, SVG Export Plug-In . SVG Version: 6.00 Build 0)  -->
<!DOCTYPE svg PUBLIC "-//W3C//DTD SVG 1.1//EN" "http://www.w3.org/Graphics/SVG/1.1/DTD/svg11.dtd">
<svg version="1.1" xmlns="http://www.w3.org/2000/svg" xmlns:xlink="http://www.w3.org/1999/xlink" x="0px" y="0px" width="100px"
	 height="100px" viewBox="0 0 100 100" enable-background="new 0 0 100 100" xml:space="preserve">
<g id="Layer_1" display="none">
	<g display="inline">
		<circle fill="#48A4D8" cx="50" cy="50" r="50"/>
		<circle fill="none" stroke="#FFFFFF" stroke-width="1.1688" stroke-miterlimit="10" cx="50" cy="50" r="43.516"/>
		<path fill="#FFFFFF" d="M72.969,58.75c0.469,0,0.938-0.391,0.938-0.937V29.766c0-0.469-0.391-0.938-0.938-0.938H57.5l-4.844-4.844
			c-0.156-0.156-0.391-0.234-0.625-0.234l0,0c-0.234,0-0.469,0.078-0.625,0.234l-5.078,5.156c-0.313,0.313-0.313,0.859,0,1.25
			l4.844,4.922v4.297h-8.516c-0.469,0-0.938,0.391-0.938,0.938v2.422h-7.188v-2.5c0-0.469-0.391-0.937-0.938-0.937h-6.641
			c-0.469,0-0.938,0.391-0.938,0.937v6.641c0,0.469,0.391,0.937,0.938,0.937h2.344v9.844c0,0.469,0.391,0.938,0.938,0.938h12.656
			l-1.484,1.484c-0.313,0.313-0.313,0.859,0,1.25c0.313,0.313,0.859,0.313,1.25,0l1.797-1.797l0.156,0.313
			c0.469,0.938,1.094,1.719,1.875,2.344c1.25,0.938,2.813,1.484,4.375,1.641h0.234v3.828h-4.688c-0.469,0-0.937,0.391-0.937,0.937
			v6.641c0,0.469,0.391,0.938,0.937,0.938H57.5c0.469,0,0.937-0.391,0.937-0.938v-6.641c0-0.469-0.391-0.937-0.937-0.937h-4.688
			v-3.75h0.234c1.563-0.156,3.047-0.781,4.375-1.719c0.859-0.625,1.484-1.406,1.953-2.344l0.156-0.313l1.797,1.797
			c0.313,0.313,0.859,0.313,1.25,0c0.313-0.313,0.313-0.859,0-1.25l-1.406-1.484L72.969,58.75z M48.203,29.766l3.828-3.828
			l3.828,3.828l-3.828,3.828L48.203,29.766z M43.516,41.328h17.109v4.922H43.516V41.328z M44.531,56.094l-1.797-1.797
			c-0.313-0.313-0.859-0.313-1.25,0c-0.313,0.313-0.313,0.859,0,1.25l1.484,1.484H31.172v-9.063h2.5
			c0.469,0,0.938-0.391,0.938-0.937v-2.422h7.188v2.422c0,0.469,0.391,0.937,0.938,0.937h8.516v3.828h-0.234
			c-1.563,0.156-3.125,0.703-4.375,1.641c-0.859,0.625-1.484,1.406-1.953,2.344L44.531,56.094z M56.641,69.609v4.922h-9.297v-4.922
			H56.641z M59.453,56.172l-0.078-0.313c-0.469-0.937-1.094-1.719-1.953-2.344c-1.25-0.937-2.813-1.484-4.375-1.641h-0.234v-3.828
			h8.516c0.469,0,0.937-0.391,0.937-0.937v-6.641c0-0.469-0.391-0.938-0.937-0.938h-8.359v-4.297l4.609-4.609h14.531v26.328H61.172
			l1.484-1.484c0.313-0.313,0.313-0.859,0-1.25c-0.313-0.313-0.859-0.313-1.25,0L59.453,56.172z"/>
	</g>
</g>
<g id="Layer_2" display="none">
	<g display="inline">
		<circle fill="#F2A24C" cx="50" cy="50" r="50"/>
		<circle fill="none" stroke="#FFFFFF" stroke-width="1.1688" stroke-miterlimit="10" cx="50" cy="50.625" r="43.516"/>
		<g>
			<path fill="#FFFFFF" d="M50,42.734c-5.859,0-10.703,4.766-10.703,10.703c0,5.859,4.766,10.703,10.703,10.703
				s10.703-4.766,10.703-10.703C60.703,47.5,55.859,42.734,50,42.734z M47.891,59.141l-4.297-5.547l2.031-1.953l2.266,2.969
				l7.656-6.172l0.938,1.094L47.891,59.141z"/>
			<path fill="none" stroke="#FFFFFF" stroke-width="1.7531" stroke-miterlimit="10" d="M74.219,71.25H25.703
				c-1.563,0-2.891-1.25-2.891-2.891V31.563c0-1.563,1.25-2.891,2.891-2.891h48.516c1.563,0,2.891,1.25,2.891,2.891v36.797
				C77.109,70,75.781,71.25,74.219,71.25z"/>
			<path fill="none" stroke="#FFFFFF" stroke-width="1.7531" stroke-miterlimit="10" d="M77.109,37.734H22.891v-6.094
				c0-1.563,1.25-2.891,2.891-2.891h48.516c1.563,0,2.891,1.25,2.891,2.891v6.094H77.109z"/>
			<g>
				
					<line fill="none" stroke="#FFFFFF" stroke-width="1.7531" stroke-linecap="round" stroke-linejoin="round" stroke-miterlimit="10" x1="28.594" y1="48.359" x2="35.625" y2="48.359"/>
				
					<line fill="none" stroke="#FFFFFF" stroke-width="1.7531" stroke-linecap="round" stroke-linejoin="round" stroke-miterlimit="10" x1="54.922" y1="54.063" x2="61.484" y2="54.063"/>
				
					<line fill="none" stroke="#FFFFFF" stroke-width="1.7531" stroke-linecap="round" stroke-linejoin="round" stroke-miterlimit="10" x1="28.594" y1="54.063" x2="42.656" y2="54.063"/>
				
					<line fill="none" stroke="#FFFFFF" stroke-width="1.7531" stroke-linecap="round" stroke-linejoin="round" stroke-miterlimit="10" x1="28.594" y1="42.734" x2="32.109" y2="42.734"/>
				
					<line fill="none" stroke="#FFFFFF" stroke-width="1.7531" stroke-linecap="round" stroke-linejoin="round" stroke-miterlimit="10" x1="28.594" y1="65.391" x2="32.109" y2="65.391"/>
				
					<line fill="none" stroke="#FFFFFF" stroke-width="1.7531" stroke-linecap="round" stroke-linejoin="round" stroke-miterlimit="10" x1="66.484" y1="54.063" x2="71.406" y2="54.063"/>
				
					<line fill="none" stroke="#FFFFFF" stroke-width="1.7531" stroke-linecap="round" stroke-linejoin="round" stroke-miterlimit="10" x1="58.203" y1="48.359" x2="68.516" y2="48.359"/>
				
					<line fill="none" stroke="#FFFFFF" stroke-width="1.7531" stroke-linecap="round" stroke-linejoin="round" stroke-miterlimit="10" x1="39.297" y1="48.359" x2="46.953" y2="48.359"/>
				
					<line fill="none" stroke="#FFFFFF" stroke-width="1.7531" stroke-linecap="round" stroke-linejoin="round" stroke-miterlimit="10" x1="28.594" y1="59.688" x2="35.625" y2="59.688"/>
				
					<line fill="none" stroke="#FFFFFF" stroke-width="1.7531" stroke-linecap="round" stroke-linejoin="round" stroke-miterlimit="10" x1="39.297" y1="59.688" x2="68.516" y2="59.688"/>
			</g>
		</g>
	</g>
</g>
<g id="Layer_3" display="none">
	<g display="inline">
		<circle fill="#71BE71" cx="50" cy="50" r="50"/>
		<circle fill="none" stroke="#FFFFFF" stroke-width="1.1688" stroke-miterlimit="10" cx="50" cy="50.625" r="43.516"/>
		<g>
			<path fill="#FFFFFF" d="M33.516,49.609c3.437-4.922,5.391-8.047,6.875-10.391c-5.625,0.469-11.016,7.5-11.016,7.5l3.75,3.75
				C33.203,50.078,33.359,49.844,33.516,49.609L33.516,49.609z"/>
			<path fill="#FFFFFF" d="M49.609,66.875l3.75,3.75c0,0,7.031-5.313,7.5-11.016c-2.344,1.484-5.469,3.438-10.391,6.875
				C50.078,66.563,49.844,66.719,49.609,66.875L49.609,66.875z"/>
			<path fill="none" stroke="#FFFFFF" stroke-width="1.7531" stroke-miterlimit="10" d="M74.063,25.938L74.063,25.938
				c-0.313-0.313-0.703-0.469-1.094-0.469l0,0c-5,0.078-17.187,1.094-23.672,7.5c-2.344,2.344-4.375,5-6.016,7.813
				c-1.484,2.422-3.594,5.781-7.344,11.172c-0.391,0.625-0.391,1.406,0.156,1.953l9.922,9.922c0.547,0.547,1.328,0.625,1.953,0.156
				c5.469-3.75,8.75-5.859,11.172-7.344c2.891-1.641,5.547-3.672,7.812-6.016c6.406-6.484,7.422-18.672,7.5-23.594
				C74.453,26.641,74.297,26.25,74.063,25.938L74.063,25.938z"/>
			<circle fill="#FFFFFF" cx="61.953" cy="38.438" r="5.469"/>
			<circle fill="#FFFFFF" cx="52.578" cy="48.047" r="3.203"/>
			
				<line fill="none" stroke="#FFFFFF" stroke-width="1.7531" stroke-linecap="round" stroke-linejoin="round" stroke-miterlimit="10" x1="33.359" y1="57.344" x2="25.469" y2="65.234"/>
			
				<line fill="none" stroke="#FFFFFF" stroke-width="1.7531" stroke-linecap="round" stroke-linejoin="round" stroke-miterlimit="10" x1="37.891" y1="61.953" x2="28.047" y2="71.797"/>
			
				<line fill="none" stroke="#FFFFFF" stroke-width="1.7531" stroke-linecap="round" stroke-linejoin="round" stroke-miterlimit="10" x1="41.797" y1="66.641" x2="33.906" y2="74.531"/>
		</g>
	</g>
</g>
<g id="Layer_4">
	<g>
		<g>
			<circle fill="#A1BAC4" cx="50" cy="50" r="50"/>
		</g>
		<circle fill="none" stroke="#FFFFFF" stroke-width="1.1688" stroke-miterlimit="10" cx="50" cy="50.625" r="43.516"/>
		<g>
			<path fill="#FFFFFF" d="M27.109,31.172l3.047,5.391c0.078,0.156,0.313,0.313,0.469,0.391l2.891,0.703l9.844,9.844l1.094-1.094
				l-9.922-9.922c-0.078-0.078-0.234-0.156-0.391-0.234l-2.734-0.703l-2.578-4.531l2.266-2.266l4.531,2.578l0.703,2.734
				c0,0.156,0.078,0.234,0.234,0.391l9.922,9.922l1.094-1.094l-9.844-9.844l-0.703-2.891c-0.078-0.234-0.156-0.391-0.391-0.469
				l-5.391-3.047c-0.313-0.156-0.703-0.156-0.938,0.156l-3.047,3.047C27.031,30.547,26.953,30.938,27.109,31.172z"/>
			<path fill="#FFFFFF" d="M58.984,42.109L42.109,58.984l-1.094-1.094l16.875-16.875L58.984,42.109z"/>
			<path fill="#FFFFFF" d="M39.141,59.531c-0.156-0.234-0.391-0.391-0.625-0.391h-4.609c-0.234,0-0.547,0.156-0.625,0.391
				l-2.266,3.828c-0.156,0.234-0.156,0.547,0,0.781l2.266,3.828c0.156,0.234,0.391,0.391,0.625,0.391h4.609
				c0.234,0,0.547-0.156,0.625-0.391l2.266-3.828c0.156-0.234,0.156-0.547,0-0.781L39.141,59.531z M38.047,66.797h-3.75
				l-1.875-3.047l1.875-3.047h3.75l1.875,3.047L38.047,66.797z"/>
			<path fill="#FFFFFF" d="M63.828,45.391c5.078,0,9.141-4.062,9.219-9.141c0-0.781-0.078-1.563-0.313-2.266
				c-0.078-0.391-0.547-0.625-0.938-0.547c-0.156,0-0.234,0.078-0.391,0.234l-4.766,4.766l-3.75-1.25l-1.25-3.75l4.766-4.766
				c0.313-0.313,0.313-0.781,0-1.094c-0.078-0.078-0.234-0.156-0.391-0.234c-4.922-1.25-9.922,1.719-11.172,6.641
				c-0.156,0.781-0.313,1.484-0.313,2.266c0,0.625,0.078,1.172,0.156,1.797L38.047,54.766c-0.625-0.156-1.172-0.156-1.797-0.156
				c-5.078,0-9.219,4.141-9.219,9.219s4.141,9.219,9.219,9.219s9.219-4.141,9.219-9.219c0-0.625-0.078-1.172-0.156-1.797
				l3.984-3.984l1.719,1.719c0.313,0.313,0.781,0.313,1.094,0l0.391-0.391c0.313-0.313,0.859-0.313,1.25,0
				c0.313,0.313,0.313,0.859,0,1.25l0,0l-0.391,0.391c-0.313,0.313-0.313,0.781,0,1.094L62.5,71.25
				c2.422,2.422,6.328,2.422,8.75,0.078c2.422-2.422,2.422-6.328,0.078-8.75c0,0,0,0-0.078-0.078l-9.141-9.141
				c-0.313-0.313-0.781-0.313-1.094,0l-0.391,0.391c-0.313,0.313-0.859,0.313-1.25,0c-0.313-0.313-0.313-0.859,0-1.25l0,0
				l0.391-0.391c0.313-0.313,0.313-0.781,0-1.094l-1.719-1.719l3.984-3.984C62.578,45.313,63.203,45.391,63.828,45.391z
				 M66.797,71.406c-0.547,0-1.094-0.078-1.641-0.313l6.016-6.016c0.938,2.422-0.313,5.078-2.734,6.016
				C67.891,71.328,67.344,71.406,66.797,71.406z M61.25,43.828L43.828,61.172c-0.156,0.156-0.234,0.469-0.234,0.703
				c1.016,4.141-1.406,8.359-5.547,9.375c-4.141,1.016-8.359-1.406-9.375-5.547c-1.016-4.141,1.406-8.359,5.547-9.375
				c1.25-0.313,2.578-0.313,3.828,0c0.234,0.078,0.547,0,0.703-0.234L56.094,38.75c0.156-0.156,0.234-0.469,0.234-0.703
				c-1.016-4.063,1.406-8.203,5.469-9.297c0.781-0.234,1.563-0.234,2.344-0.234l-4.063,4.063c-0.234,0.234-0.313,0.547-0.156,0.781
				l1.563,4.609c0.078,0.234,0.234,0.391,0.469,0.469L66.563,40c0.313,0.078,0.547,0,0.781-0.156l4.063-4.063
				c0,0.156,0,0.313,0,0.469c0,4.219-3.359,7.656-7.578,7.656c-0.625,0-1.328-0.078-1.953-0.234
				C61.719,43.516,61.406,43.594,61.25,43.828L61.25,43.828L61.25,43.828z"/>
			<g id="XMLID_1_">
				<g>
					<path fill="#FFFFFF" d="M56.875,50.313l1.25,1.25c-0.859,1.016-0.703,2.5,0.313,3.359c0.859,0.781,2.187,0.781,3.047,0
						l8.594,8.594c0.078,0.078,0.156,0.156,0.234,0.313l-6.563,6.563c-0.078-0.078-0.234-0.156-0.313-0.234l-8.594-8.594
						c0.859-1.016,0.703-2.5-0.313-3.359c-0.859-0.781-2.187-0.781-3.047,0l-1.25-1.25L56.875,50.313z"/>
				</g>
			</g>
			<path fill="#A1BAC4" d="M65.156,66.953l-1.094,1.094l-7.656-7.656l1.094-1.094L65.156,66.953z"/>
			<path fill="#A1BAC4" d="M68.125,64.063l-1.094,1.094L59.375,57.5l1.094-1.094L68.125,64.063z"/>
		</g>
	</g>
</g>
</svg>
