<?xml version="1.0" encoding="utf-8"?>
<!-- Generator: Adobe Illustrator 17.0.0, SVG Export Plug-In . SVG Version: 6.00 Build 0)  -->
<!DOCTYPE svg PUBLIC "-//W3C//DTD SVG 1.1//EN" "http://www.w3.org/Graphics/SVG/1.1/DTD/svg11.dtd">
<svg version="1.1" id="Layer_1" xmlns="http://www.w3.org/2000/svg" xmlns:xlink="http://www.w3.org/1999/xlink" x="0px" y="0px"
	 width="100px" height="100px" viewBox="0 0 100 100" enable-background="new 0 0 100 100" xml:space="preserve">
<path fill="#FFFFFF" d="M5.749,34.76c0.691,0.357,1.459,0.543,2.238,0.542c2.079,0,3.928-1.32,4.605-3.286l12.843-0.199
	l-2.241,1.852c-0.617,0.507-0.777,1.386-0.377,2.077l3.052,5.272l0.067,7.349h-8.15c-0.096,0.01-0.191,0.029-0.283,0.057
	c-0.771-2.27-3.072-3.649-5.438-3.258c-2.365,0.391-4.1,2.436-4.1,4.834s1.735,4.443,4.1,4.834c2.366,0.391,4.666-0.988,5.438-3.258
	c0.092,0.029,0.187,0.048,0.283,0.057h9.799c0.435,0,0.853-0.174,1.159-0.483c0.307-0.309,0.478-0.729,0.474-1.164l-0.075-8.277
	l5.225-1.959c0.355,0.23,0.715,0.439,1.08,0.63L36.549,47c0.132,0.787,0.813,1.364,1.612,1.364h0.854v8.165h-4.899
	c-0.902,0-1.633,0.731-1.633,1.633v23.823L18.264,96.205c-0.467,0.467-0.607,1.17-0.354,1.78s0.848,1.008,1.509,1.008h52.259
	c0.66,0,1.256-0.398,1.508-1.008c0.253-0.61,0.113-1.313-0.353-1.78L61.879,85.252v-8.67l3.656-6.09
	c6.169,3.722,9.898,5.638,11.042,5.638h9.799c0.902,0,1.633-0.731,1.633-1.633v-9.122l2.786-2.786
	c0.305-0.307,0.478-0.722,0.48-1.156v-4.899h2.386c1.105,0,2.136-0.559,2.739-1.486c0.602-0.927,0.695-2.096,0.246-3.106
	l-5.078-11.432c1.927-2.295,2.98-5.197,2.973-8.193c0.037-10.809-6.075-20.697-15.759-25.499l-4.737-2.371
	c-0.718-0.358-1.591-0.141-2.057,0.513l-0.684,0.949H60.245V2.64c0-0.902-0.731-1.633-1.633-1.633H42.281
	c-0.902,0-1.633,0.731-1.633,1.633v6.532h-2.492c-0.799-0.001-1.482,0.577-1.612,1.365l-1.102,6.619
	c-0.364,0.191-0.726,0.4-1.08,0.63l-6.289-2.356c-0.747-0.281-1.588,0.021-1.987,0.712l-1.647,2.853
	c-0.042,0-0.077-0.025-0.119-0.025h-9.802v-5.2c2.249-0.795,3.599-3.096,3.195-5.447c-0.403-2.352-2.442-4.071-4.828-4.071
	c-2.387,0-4.426,1.718-4.829,4.071c-0.403,2.352,0.947,4.652,3.196,5.447v6.833c0,0.902,0.731,1.633,1.633,1.633h9.774
	c-0.15,0.602,0.057,1.236,0.534,1.633l5.18,4.265c0,0.12,0,0.242-0.01,0.363l-15.779,0.243c-0.742-2.07-2.773-3.393-4.966-3.233
	c-2.194,0.159-4.013,1.76-4.448,3.915C2.735,31.58,3.789,33.762,5.749,34.76z M12.886,51.633c-0.902,0-1.633-0.731-1.633-1.633
	s0.731-1.633,1.633-1.633s1.633,0.731,1.633,1.633S13.788,51.633,12.886,51.633z M12.886,7.54c0.902,0,1.633,0.731,1.633,1.633
	s-0.731,1.633-1.633,1.633s-1.633-0.731-1.633-1.633S11.984,7.54,12.886,7.54z M42.281,48.367h2.407c0.797,0,1.478-0.577,1.61-1.364
	l1.104-6.621c0.363-0.189,0.724-0.399,1.078-0.63l6.292,2.356c0.747,0.281,1.588-0.021,1.987-0.712l0.691-1.195h7.693
	c0.12-0.01,0.239-0.033,0.354-0.072l2.912,3.882v2.722h-6.532V50h3.768l-4.374,1.749c-0.62,0.248-1.028,0.849-1.027,1.517v3.266
	H42.281V48.367z M60.026,21.8l-0.689-1.195h4.174v6.532h-7.821l3.96-3.266C60.264,23.363,60.422,22.489,60.026,21.8z M63.512,30.403
	v6.532h-4.174l0.689-1.195c0.396-0.69,0.238-1.564-0.376-2.071l-3.96-3.266H63.512z M52.558,70.752l6.054,6.054v0.957h-9.799V59.799
	h3.266v9.799C52.08,70.03,52.252,70.446,52.558,70.752z M42.206,92.46h0.075v-0.085l6.129-7.004
	c0.261-0.298,0.403-0.681,0.403-1.076v-3.266h3.266v14.698H39.341L42.206,92.46z M23.361,95.726l11.91-11.91
	c0.306-0.306,0.478-0.722,0.478-1.155V59.799h9.799v23.882l-3.266,3.733v-8.019h-3.266v11.759l-4.008,4.572H23.361z M67.735,95.726
	H55.346V81.029h3.266v4.899c0,0.433,0.172,0.848,0.478,1.155L67.735,95.726z M59.918,73.497l-4.572-4.573v-9.126h4.899v6.532
	c0,0.563,0.29,1.086,0.767,1.385c0.609,0.382,1.159,0.718,1.734,1.073L59.918,73.497z M73.828,7.99l3.492,1.748
	c8.575,4.25,13.987,13.007,13.955,22.577c0.007,2.526-0.997,4.95-2.788,6.732c-0.478,0.478-0.612,1.2-0.338,1.817l5.512,12.402
	h-4.019c-0.902,0-1.633,0.731-1.633,1.633v4.899h-0.281c-2.526,0.007-4.95-0.997-6.73-2.788c-0.641-0.619-1.659-0.61-2.289,0.02
	s-0.639,1.648-0.02,2.289c1.935,1.942,4.449,3.202,7.162,3.593l-0.63,0.63c-0.306,0.306-0.478,0.722-0.478,1.155v8.165l-8.011,0.01
	c-3.773-1.745-7.416-3.759-10.901-6.026l-0.008-0.008h-0.01c-0.769-0.467-1.54-0.941-2.301-1.413V54.371l7.138-2.854
	c0.62-0.248,1.027-0.849,1.027-1.517v-6.532c0-0.353-0.115-0.697-0.327-0.98l-4.572-6.096V17.861L73.828,7.99z M43.915,4.274h13.065
	V7.54c0,0.902,0.731,1.633,1.633,1.633h10.358l-5.154,7.217c-0.199,0.277-0.306,0.608-0.305,0.949h-6.06l-0.691-1.195
	c-0.4-0.691-1.24-0.993-1.987-0.712l-6.286,2.356c-0.354-0.23-0.715-0.441-1.078-0.63l-1.11-6.621
	c-0.132-0.787-0.813-1.364-1.61-1.364h-0.774V4.274z M26.337,22.237l1.883-3.266l5.8,2.174c0.521,0.195,1.104,0.112,1.549-0.221
	c0.615-0.463,1.282-0.852,1.988-1.159c0.511-0.219,0.876-0.684,0.966-1.233l1.016-6.093h3.766l1.016,6.095
	c0.091,0.549,0.455,1.014,0.966,1.233c0.706,0.308,1.372,0.697,1.988,1.159c0.445,0.333,1.028,0.415,1.548,0.221l5.801-2.175
	l1.881,3.266l-4.777,3.931c-0.429,0.353-0.649,0.902-0.583,1.454c0.1,0.762,0.1,1.534,0,2.297c-0.066,0.553,0.154,1.101,0.583,1.455
	l4.777,3.927l-1.881,3.266l-5.801-2.174c-0.52-0.195-1.103-0.112-1.548,0.221c-0.616,0.462-1.282,0.852-1.988,1.159
	c-0.511,0.219-0.876,0.684-0.966,1.233l-1.016,6.093h-3.768l-1.013-6.095c-0.091-0.549-0.455-1.014-0.966-1.233
	c-0.706-0.307-1.373-0.696-1.987-1.159c-0.446-0.333-1.029-0.416-1.55-0.221l-5.801,2.175l-1.883-3.266l4.777-3.931
	c0.029-0.028,0.057-0.058,0.083-0.089c0.032-0.03,0.061-0.061,0.09-0.095c0.123-0.132,0.222-0.285,0.293-0.451l0.01-0.018
	c0.068-0.179,0.104-0.371,0.104-0.563c0.006-0.023,0.01-0.047,0.013-0.07c0-0.02-0.01-0.036-0.011-0.056
	c-0.002-0.02,0-0.075,0-0.112c-0.1-0.762-0.1-1.534,0-2.297c0.065-0.553-0.155-1.101-0.584-1.455L26.337,22.237z M6.534,29.657
	c0.195-0.39,0.539-0.684,0.954-0.817c0.836-0.213,1.693,0.261,1.958,1.082c0.265,0.821-0.155,1.706-0.958,2.021
	c-0.859,0.276-1.779-0.196-2.055-1.055C6.303,30.48,6.339,30.038,6.534,29.657z"/>
</svg>
