<?xml version="1.0" encoding="utf-8"?>
<!-- Generator: Adobe Illustrator 17.0.0, SVG Export Plug-In . SVG Version: 6.00 Build 0)  -->
<!DOCTYPE svg PUBLIC "-//W3C//DTD SVG 1.1//EN" "http://www.w3.org/Graphics/SVG/1.1/DTD/svg11.dtd">
<svg version="1.1" id="Layer_1" xmlns="http://www.w3.org/2000/svg" xmlns:xlink="http://www.w3.org/1999/xlink" x="0px" y="0px"
	 width="100px" height="100px" viewBox="0 0 100 100" style="enable-background:new 0 0 100 100;" xml:space="preserve">
<g>
	<g>
		<path style="fill:#FFFFFF;" d="M99.425,36.512c-0.489-0.597-1.219-0.945-1.984-0.945h-9.732
			c-2.402-6.335-5.531-12.541-9.087-14.884c-12.303-8.094-44.936-8.094-57.239,0c-3.559,2.345-6.675,8.56-9.09,14.884H2.561
			c-0.773,0-1.5,0.348-1.984,0.945c-0.486,0.594-0.681,1.38-0.522,2.135l1.442,6.985c0.246,1.191,1.296,2.041,2.507,2.041h2.883
			c-2.783,3.211-4.133,7.254-4.15,11.299c-0.018,4.998,1.879,9.515,5.349,12.71c0.038,0.033,0.077,0.056,0.113,0.09v9.773
			c0,2.117,1.721,3.841,3.841,3.841h8.977c2.12,0,3.841-1.723,3.841-3.841v-3.928h50.29v3.928c0,2.117,1.721,3.841,3.841,3.841
			h8.977c2.115,0,3.841-1.723,3.841-3.841v-9.581c3.682-3.372,5.441-8.012,5.464-12.644c0.015-4.184-1.395-8.375-4.343-11.653H96
			c1.216,0,2.266-0.85,2.507-2.043l1.444-6.982C100.099,37.893,99.912,37.112,99.425,36.512z M25.6,27.098
			c9.807-6.455,38.993-6.455,48.795,0c1.905,1.25,4.355,6.301,6.601,12.487H19.004C21.245,33.402,23.695,28.352,25.6,27.098z
			 M14.114,59.936c0-4.174,3.385-7.553,7.556-7.553c4.176,0,7.556,3.38,7.556,7.553s-3.38,7.556-7.556,7.556
			C17.499,67.491,14.114,64.109,14.114,59.936z M78.43,67.491c-4.171,0-7.556-3.382-7.556-7.556c0-4.174,3.385-7.553,7.556-7.553
			c4.176,0,7.556,3.38,7.556,7.553C85.986,64.109,82.601,67.491,78.43,67.491z"/>
	</g>
</g>
</svg>
