<?xml version="1.0" encoding="utf-8"?>
<!-- Generator: Adobe Illustrator 17.0.0, SVG Export Plug-In . SVG Version: 6.00 Build 0)  -->
<!DOCTYPE svg PUBLIC "-//W3C//DTD SVG 1.1//EN" "http://www.w3.org/Graphics/SVG/1.1/DTD/svg11.dtd">
<svg version="1.1" id="Layer_1" xmlns="http://www.w3.org/2000/svg" xmlns:xlink="http://www.w3.org/1999/xlink" x="0px" y="0px"
	 width="50px" height="50px" viewBox="0 0 50 50" enable-background="new 0 0 50 50" xml:space="preserve">
<path fill="#FFFFFF" d="M28.646,6.25l-5.929,2.083l5.929,2.083l5.929-2.083L28.646,6.25z M43.229,6.25l-5.929,2.083l5.929,2.083
	l5.929-2.083L43.229,6.25z M22.396,10.417v6.596l5.208,1.737v-6.596L22.396,10.417z M34.896,10.417l-5.208,1.737v6.596l5.208-1.737
	V10.417z M36.979,10.417v6.596l5.208,1.737v-6.596L36.979,10.417z M49.479,10.417l-5.208,1.737v6.596l5.208-1.737V10.417z
	 M6.771,18.75l-5.929,2.083l5.929,2.083l5.929-2.083L6.771,18.75z M21.354,18.75l-5.929,2.083l5.929,2.083l5.929-2.083L21.354,18.75
	z M0.521,22.917v6.596l5.208,1.737v-6.596L0.521,22.917z M13.021,22.917l-5.208,1.737v6.596l5.208-1.737V22.917z M15.104,22.917
	v6.596l5.208,1.737v-6.596L15.104,22.917z M27.604,22.917l-5.208,1.737v6.596l5.208-1.737V22.917z M14.063,31.25l-5.929,2.083
	l5.929,2.083l5.929-2.083L14.063,31.25z M7.813,35.417v6.596l5.208,1.737v-6.596L7.813,35.417z M20.313,35.417l-5.208,1.737v6.596
	l5.208-1.737V35.417z"/>
</svg>
