<?xml version="1.0" encoding="utf-8"?>
<!-- Generator: Adobe Illustrator 17.0.0, SVG Export Plug-In . SVG Version: 6.00 Build 0)  -->
<!DOCTYPE svg PUBLIC "-//W3C//DTD SVG 1.1//EN" "http://www.w3.org/Graphics/SVG/1.1/DTD/svg11.dtd">
<svg version="1.1" id="Layer_1" xmlns="http://www.w3.org/2000/svg" xmlns:xlink="http://www.w3.org/1999/xlink" x="0px" y="0px"
	 width="100px" height="100px" viewBox="0 0 100 100" enable-background="new 0 0 100 100" xml:space="preserve">
<g id="Layer_1_1_" display="none">
	<g display="inline">
		<circle fill="#48A4D8" cx="50" cy="50" r="50"/>
		<circle fill="none" stroke="#FFFFFF" stroke-width="1.1688" stroke-miterlimit="10" cx="50" cy="50" r="43.516"/>
		<path fill="#FFFFFF" d="M72.969,58.75c0.469,0,0.938-0.391,0.938-0.937V29.766c0-0.469-0.391-0.938-0.938-0.938H57.5l-4.844-4.844
			c-0.156-0.156-0.391-0.234-0.625-0.234l0,0c-0.234,0-0.469,0.078-0.625,0.234l-5.078,5.156c-0.313,0.313-0.313,0.859,0,1.25
			l4.844,4.922v4.297h-8.516c-0.469,0-0.938,0.391-0.938,0.938v2.422H34.53v-2.5c0-0.469-0.391-0.937-0.938-0.937h-6.641
			c-0.469,0-0.938,0.391-0.938,0.937v6.641c0,0.469,0.391,0.937,0.938,0.937h2.344v9.844c0,0.469,0.391,0.938,0.938,0.938h12.656
			l-1.484,1.484c-0.313,0.313-0.313,0.859,0,1.25c0.313,0.313,0.859,0.313,1.25,0l1.797-1.797l0.156,0.313
			c0.469,0.938,1.094,1.719,1.875,2.344c1.25,0.938,2.813,1.484,4.375,1.641h0.234v3.828h-4.688c-0.469,0-0.937,0.391-0.937,0.937
			v6.641c0,0.469,0.391,0.938,0.937,0.938H57.5c0.469,0,0.937-0.391,0.937-0.938v-6.641c0-0.469-0.391-0.937-0.937-0.937h-4.688
			v-3.75h0.234c1.563-0.156,3.047-0.781,4.375-1.719c0.859-0.625,1.484-1.406,1.953-2.344l0.156-0.313l1.797,1.797
			c0.313,0.313,0.859,0.313,1.25,0c0.313-0.313,0.313-0.859,0-1.25l-1.406-1.484L72.969,58.75z M48.203,29.766l3.828-3.828
			l3.828,3.828l-3.828,3.828L48.203,29.766z M43.516,41.328h17.109v4.922H43.516V41.328z M44.531,56.094l-1.797-1.797
			c-0.313-0.313-0.859-0.313-1.25,0c-0.313,0.313-0.313,0.859,0,1.25l1.484,1.484H31.172v-9.063h2.5
			c0.469,0,0.938-0.391,0.938-0.937v-2.422h7.188v2.422c0,0.469,0.391,0.937,0.938,0.937h8.516v3.828h-0.234
			c-1.563,0.156-3.125,0.703-4.375,1.641c-0.859,0.625-1.484,1.406-1.953,2.344L44.531,56.094z M56.641,69.609v4.922h-9.297v-4.922
			H56.641z M59.453,56.172l-0.078-0.313c-0.469-0.937-1.094-1.719-1.953-2.344c-1.25-0.937-2.813-1.484-4.375-1.641h-0.234v-3.828
			h8.516c0.469,0,0.937-0.391,0.937-0.937v-6.641c0-0.469-0.391-0.938-0.937-0.938H52.97v-4.297l4.609-4.609H72.11v26.328H61.172
			l1.484-1.484c0.313-0.313,0.313-0.859,0-1.25c-0.313-0.313-0.859-0.313-1.25,0L59.453,56.172z"/>
	</g>
</g>
<g id="Layer_2" display="none">
	<g display="inline">
		<circle fill="#F2A24C" cx="50" cy="50" r="50"/>
		<circle fill="none" stroke="#FFFFFF" stroke-width="1.1688" stroke-miterlimit="10" cx="50" cy="50.625" r="43.516"/>
		<g>
			<path fill="#FFFFFF" d="M50,42.734c-5.859,0-10.703,4.766-10.703,10.703c0,5.859,4.766,10.703,10.703,10.703
				s10.703-4.766,10.703-10.703S55.859,42.734,50,42.734z M47.891,59.141l-4.297-5.547l2.031-1.953l2.266,2.969l7.656-6.172
				l0.938,1.094L47.891,59.141z"/>
			<path fill="none" stroke="#FFFFFF" stroke-width="1.7531" stroke-miterlimit="10" d="M74.219,71.25H25.703
				c-1.563,0-2.891-1.25-2.891-2.891V31.563c0-1.563,1.25-2.891,2.891-2.891h48.516c1.563,0,2.891,1.25,2.891,2.891V68.36
				C77.109,70,75.781,71.25,74.219,71.25z"/>
			<path fill="none" stroke="#FFFFFF" stroke-width="1.7531" stroke-miterlimit="10" d="M77.109,37.734H22.891V31.64
				c0-1.563,1.25-2.891,2.891-2.891h48.516c1.563,0,2.891,1.25,2.891,2.891v6.094H77.109z"/>
			<g>
				
					<line fill="none" stroke="#FFFFFF" stroke-width="1.7531" stroke-linecap="round" stroke-linejoin="round" stroke-miterlimit="10" x1="28.594" y1="48.359" x2="35.625" y2="48.359"/>
				
					<line fill="none" stroke="#FFFFFF" stroke-width="1.7531" stroke-linecap="round" stroke-linejoin="round" stroke-miterlimit="10" x1="54.922" y1="54.063" x2="61.484" y2="54.063"/>
				
					<line fill="none" stroke="#FFFFFF" stroke-width="1.7531" stroke-linecap="round" stroke-linejoin="round" stroke-miterlimit="10" x1="28.594" y1="54.063" x2="42.656" y2="54.063"/>
				
					<line fill="none" stroke="#FFFFFF" stroke-width="1.7531" stroke-linecap="round" stroke-linejoin="round" stroke-miterlimit="10" x1="28.594" y1="42.734" x2="32.109" y2="42.734"/>
				
					<line fill="none" stroke="#FFFFFF" stroke-width="1.7531" stroke-linecap="round" stroke-linejoin="round" stroke-miterlimit="10" x1="28.594" y1="65.391" x2="32.109" y2="65.391"/>
				
					<line fill="none" stroke="#FFFFFF" stroke-width="1.7531" stroke-linecap="round" stroke-linejoin="round" stroke-miterlimit="10" x1="66.484" y1="54.063" x2="71.406" y2="54.063"/>
				
					<line fill="none" stroke="#FFFFFF" stroke-width="1.7531" stroke-linecap="round" stroke-linejoin="round" stroke-miterlimit="10" x1="58.203" y1="48.359" x2="68.516" y2="48.359"/>
				
					<line fill="none" stroke="#FFFFFF" stroke-width="1.7531" stroke-linecap="round" stroke-linejoin="round" stroke-miterlimit="10" x1="39.297" y1="48.359" x2="46.953" y2="48.359"/>
				
					<line fill="none" stroke="#FFFFFF" stroke-width="1.7531" stroke-linecap="round" stroke-linejoin="round" stroke-miterlimit="10" x1="28.594" y1="59.688" x2="35.625" y2="59.688"/>
				
					<line fill="none" stroke="#FFFFFF" stroke-width="1.7531" stroke-linecap="round" stroke-linejoin="round" stroke-miterlimit="10" x1="39.297" y1="59.688" x2="68.516" y2="59.688"/>
			</g>
		</g>
	</g>
</g>
<circle fill="#71BE71" cx="50" cy="50" r="50"/>
<circle fill="none" stroke="#FFFFFF" stroke-width="1.1688" stroke-miterlimit="10" cx="50" cy="50.625" r="43.516"/>
<path fill="#FFFFFF" d="M68.986,46.555c-0.479-8.146-7.194-14.658-15.289-14.658c-4.915,0-9.674,2.411-12.623,6.343
	c-0.068-0.036-0.139-0.06-0.208-0.092c-0.179-0.087-0.361-0.17-0.547-0.243c-0.103-0.04-0.206-0.078-0.311-0.114
	c-0.184-0.065-0.37-0.121-0.561-0.173c-0.104-0.028-0.207-0.057-0.312-0.08c-0.203-0.046-0.412-0.081-0.622-0.113
	c-0.091-0.014-0.181-0.032-0.273-0.042c-0.301-0.033-0.605-0.054-0.913-0.054c-4.493,0-8.146,3.654-8.146,8.146
	c0,0.115,0.007,0.228,0.014,0.341v0.004c-3.764,2.053-6.35,6.353-6.35,10.657c0,6.411,5.215,11.628,11.626,11.628h22.184
	c0.094,0,0.188-0.005,0.282-0.013l0.056-0.007l0.121,0.007c0.092,0.007,0.185,0.013,0.279,0.013h8.873
	c6.003,0,10.887-4.884,10.887-10.887C77.155,52.248,73.691,47.791,68.986,46.555z M66.267,66.293h-8.873
	c-0.054,0-0.105-0.004-0.157-0.008l-0.246-0.01l-0.179,0.01c-0.051,0.004-0.104,0.008-0.156,0.008H34.472
	c-5.413,0-9.816-4.403-9.816-9.817c0-3.76,2.448-7.663,5.823-9.28l0.513-0.246v-0.57c0-0.115,0.007-0.232,0.014-0.349l0.008-0.145
	l-0.011-0.19c-0.005-0.073-0.011-0.147-0.011-0.221c0-3.493,2.843-6.336,6.336-6.336c0.279,0,0.556,0.025,0.83,0.061
	c0.071,0.009,0.141,0.021,0.211,0.033c0.242,0.04,0.48,0.092,0.714,0.16c0.032,0.009,0.065,0.015,0.096,0.025
	c0.258,0.079,0.51,0.178,0.756,0.29c0.065,0.029,0.127,0.061,0.19,0.091c0.217,0.108,0.43,0.225,0.635,0.358
	c1.744,1.13,2.904,3.089,2.904,5.318c0,0.5,0.405,0.905,0.905,0.905c0.5,0,0.905-0.405,0.905-0.905c0-2.493-1.128-4.724-2.896-6.22
	c2.595-3.394,6.868-5.547,11.12-5.547c7.01,0,12.832,5.553,13.44,12.571c-0.925-0.065-2.31-0.098-3.696,0.112
	c-0.494,0.075-0.833,0.537-0.759,1.031c0.068,0.448,0.453,0.769,0.894,0.769c0.045,0,0.091-0.004,0.137-0.011
	c2.016-0.305,4.117-0.019,4.24-0.002c4.214,0.801,7.391,4.683,7.391,9.038C75.344,62.221,71.272,66.293,66.267,66.293z"/>
</svg>
