<?xml version="1.0" encoding="utf-8"?>
<!-- Generator: Adobe Illustrator 17.0.0, SVG Export Plug-In . SVG Version: 6.00 Build 0)  -->
<!DOCTYPE svg PUBLIC "-//W3C//DTD SVG 1.1//EN" "http://www.w3.org/Graphics/SVG/1.1/DTD/svg11.dtd">
<svg version="1.1" id="Layer_1" xmlns="http://www.w3.org/2000/svg" xmlns:xlink="http://www.w3.org/1999/xlink" x="0px" y="0px"
	 width="50px" height="50px" viewBox="0 0 50 50" enable-background="new 0 0 50 50" xml:space="preserve">
<path fill="#7FABDA" stroke="#7383BF" stroke-width="1.9856" stroke-linecap="round" stroke-miterlimit="10" d="M41.549,17.935
	c-0.095-7.197-5.951-13.237-13.17-13.237c-4.599,0-8.918,2.486-11.302,6.069c-1.047-0.697-2.306-1.105-3.659-1.105
	c-3.655,0-6.619,2.963-6.619,6.619c0,0.127,0.012,0.25,0.019,0.376c-0.008,0.151-0.019,0.303-0.019,0.452
	c-3.299,1.582-5.791,5.342-5.791,9.229c0,5.39,4.41,9.8,9.8,9.8h20.275c0.114,0,0.225-0.013,0.338-0.017
	c0.113,0.004,0.224,0.017,0.338,0.017h8.11c5.019,0,9.125-4.106,9.125-9.124C48.993,22.569,45.771,18.73,41.549,17.935z"/>
<path fill="#7FABDA" stroke="#7383BF" stroke-width="1.9856" stroke-linecap="round" stroke-miterlimit="10" d="M41.549,17.935
	c0,0-2.097-0.31-4.139,0"/>
<path fill="#7FABDA" stroke="#7383BF" stroke-width="1.9856" stroke-linecap="round" stroke-miterlimit="10" d="M6.799,16.28
	c0-3.655,2.963-6.619,6.619-6.619s6.619,2.963,6.619,6.619"/>
<g>
	
		<line fill="none" stroke="#424A60" stroke-width="1.3411" stroke-linecap="round" stroke-miterlimit="10" x1="13.171" y1="40.236" x2="13.171" y2="27.384"/>
	
		<line fill="none" stroke="#424A60" stroke-width="1.3411" stroke-linecap="round" stroke-miterlimit="10" x1="13.171" y1="27.384" x2="17.641" y2="31.854"/>
	
		<line fill="none" stroke="#424A60" stroke-width="1.3411" stroke-linecap="round" stroke-miterlimit="10" x1="8.7" y1="31.854" x2="13.171" y2="27.384"/>
</g>
<g>
	
		<line fill="none" stroke="#424A60" stroke-width="1.3411" stroke-linecap="round" stroke-miterlimit="10" x1="25.078" y1="40.236" x2="25.078" y2="27.384"/>
	
		<line fill="none" stroke="#424A60" stroke-width="1.3411" stroke-linecap="round" stroke-miterlimit="10" x1="25.078" y1="27.384" x2="29.548" y2="31.854"/>
	
		<line fill="none" stroke="#424A60" stroke-width="1.3411" stroke-linecap="round" stroke-miterlimit="10" x1="20.608" y1="31.854" x2="25.078" y2="27.384"/>
</g>
<g>
	
		<line fill="none" stroke="#424A60" stroke-width="1.3411" stroke-linecap="round" stroke-miterlimit="10" x1="37.268" y1="40.236" x2="37.268" y2="27.384"/>
	
		<line fill="none" stroke="#424A60" stroke-width="1.3411" stroke-linecap="round" stroke-miterlimit="10" x1="37.268" y1="27.384" x2="41.739" y2="31.854"/>
	
		<line fill="none" stroke="#424A60" stroke-width="1.3411" stroke-linecap="round" stroke-miterlimit="10" x1="32.798" y1="31.854" x2="37.268" y2="27.384"/>
</g>
</svg>
