<?xml version="1.0" encoding="utf-8"?>
<!-- Generator: Adobe Illustrator 17.0.0, SVG Export Plug-In . SVG Version: 6.00 Build 0)  -->
<!DOCTYPE svg PUBLIC "-//W3C//DTD SVG 1.1//EN" "http://www.w3.org/Graphics/SVG/1.1/DTD/svg11.dtd">
<svg version="1.1" id="Layer_1" xmlns="http://www.w3.org/2000/svg" xmlns:xlink="http://www.w3.org/1999/xlink" x="0px" y="0px"
	 width="100px" height="100px" viewBox="0 0 100 100" enable-background="new 0 0 100 100" xml:space="preserve">
<path fill="#FFFFFF" d="M84.718,43.7c-0.876-14.896-13.155-26.804-27.957-26.804c-8.987,0-17.69,4.408-23.083,11.599
	c-0.124-0.065-0.255-0.109-0.381-0.169c-0.328-0.159-0.66-0.31-1-0.445c-0.189-0.074-0.377-0.142-0.568-0.209
	c-0.336-0.118-0.677-0.222-1.025-0.316c-0.19-0.051-0.379-0.104-0.571-0.147c-0.372-0.084-0.753-0.149-1.137-0.207
	c-0.167-0.025-0.331-0.058-0.5-0.076c-0.55-0.061-1.106-0.099-1.67-0.099c-8.215,0-14.896,6.682-14.896,14.896
	c0,0.21,0.013,0.417,0.026,0.624v0.007C5.074,46.109,0.345,53.971,0.345,61.841c0,11.723,9.537,21.262,21.26,21.262H62.17
	c0.172,0,0.343-0.01,0.515-0.023l0.103-0.013l0.222,0.013c0.169,0.013,0.338,0.023,0.511,0.023h16.225
	c10.977,0,19.908-8.931,19.908-19.908C99.655,54.11,93.32,45.961,84.718,43.7z M79.746,79.793H63.521
	c-0.098,0-0.192-0.008-0.288-0.015l-0.449-0.018l-0.328,0.018c-0.094,0.007-0.19,0.015-0.286,0.015H21.606
	c-9.898,0-17.95-8.052-17.95-17.952c0-6.876,4.477-14.013,10.648-16.97l0.938-0.449v-1.043c0-0.21,0.013-0.424,0.025-0.639
	l0.015-0.265l-0.02-0.348c-0.01-0.134-0.02-0.268-0.02-0.404c0-6.387,5.199-11.586,11.586-11.586c0.511,0,1.016,0.045,1.518,0.111
	c0.129,0.017,0.258,0.038,0.386,0.06c0.442,0.073,0.877,0.169,1.306,0.293c0.058,0.017,0.118,0.028,0.175,0.045
	c0.472,0.144,0.932,0.326,1.382,0.531c0.118,0.053,0.232,0.111,0.348,0.167c0.397,0.197,0.786,0.412,1.162,0.655
	c3.189,2.066,5.31,5.649,5.31,9.724c0,0.915,0.74,1.655,1.655,1.655s1.655-0.74,1.655-1.655c0-4.558-2.062-8.638-5.296-11.373
	c4.745-6.207,12.559-10.144,20.334-10.144c12.819,0,23.465,10.154,24.576,22.987c-1.692-0.119-4.224-0.18-6.758,0.205
	c-0.904,0.137-1.524,0.982-1.387,1.885c0.124,0.819,0.829,1.407,1.634,1.407c0.083,0,0.167-0.007,0.25-0.02
	c3.686-0.558,7.528-0.035,7.753-0.003c7.706,1.465,13.516,8.564,13.516,16.527C96.344,72.346,88.898,79.793,79.746,79.793z"/>
</svg>
