<?xml version="1.0" encoding="utf-8"?>
<!-- Generator: Adobe Illustrator 17.0.0, SVG Export Plug-In . SVG Version: 6.00 Build 0)  -->
<!DOCTYPE svg PUBLIC "-//W3C//DTD SVG 1.1//EN" "http://www.w3.org/Graphics/SVG/1.1/DTD/svg11.dtd">
<svg version="1.1" id="Layer_1" xmlns="http://www.w3.org/2000/svg" xmlns:xlink="http://www.w3.org/1999/xlink" x="0px" y="0px"
	 width="50px" height="50px" viewBox="0 0 50 50" enable-background="new 0 0 50 50" xml:space="preserve">
<g>
	<path fill="#7FABDA" stroke="#7383BF" stroke-width="2.5664" stroke-linecap="round" stroke-miterlimit="10" d="M40.829,18.757
		c-0.091-6.884-5.692-12.661-12.597-12.661c-4.399,0-8.53,2.378-10.81,5.805c-1.002-0.667-2.205-1.057-3.5-1.057
		c-3.496,0-6.331,2.834-6.331,6.331c0,0.121,0.011,0.239,0.018,0.359c-0.008,0.144-0.018,0.29-0.018,0.432
		c-3.156,1.513-5.539,5.11-5.539,8.827c0,5.155,4.218,9.373,9.373,9.373l0.692,7.737l7.393-7.613l11.308-0.124
		c0.109,0,0.215-0.013,0.323-0.017c0.108,0.004,0.214,0.017,0.323,0.017h7.757c4.8,0,8.727-3.927,8.727-8.727
		C47.948,23.19,44.867,19.518,40.829,18.757z"/>
	<path fill="#7FABDA" stroke="#7383BF" stroke-width="2.5664" stroke-linecap="round" stroke-miterlimit="10" d="M40.829,18.757
		c0,0-2.006-0.297-3.959,0"/>
	<path fill="#7FABDA" stroke="#7383BF" stroke-width="2.5664" stroke-linecap="round" stroke-miterlimit="10" d="M7.591,17.175
		c0-3.496,2.834-6.331,6.331-6.331s6.331,2.834,6.331,6.331"/>
</g>
</svg>
