<?xml version="1.0" encoding="utf-8"?>
<!-- Generator: Adobe Illustrator 17.0.0, SVG Export Plug-In . SVG Version: 6.00 Build 0)  -->
<!DOCTYPE svg PUBLIC "-//W3C//DTD SVG 1.1//EN" "http://www.w3.org/Graphics/SVG/1.1/DTD/svg11.dtd">
<svg version="1.1" xmlns="http://www.w3.org/2000/svg" xmlns:xlink="http://www.w3.org/1999/xlink" x="0px" y="0px" width="500px"
	 height="187.5px" viewBox="0 0 500 187.5" enable-background="new 0 0 500 187.5" xml:space="preserve">
<g id="Layer_2">
</g>
<g id="Layer_1">
</g>
<g id="Layer_4">
</g>
<g id="Layer_3">
	
		<text transform="matrix(1.0227 0 0 1 304.5225 161.3517)" fill="#2D2D2D" font-family="'Corbel'" font-size="32.3596" letter-spacing="0.978">Technologies</text>
	<g>
		<text transform="matrix(1.0227 0 0 1 146.7294 128.391)" fill="#F36D78" font-family="'Comfortaa'" font-size="108.5072">Codea</text>
		<text transform="matrix(1.0227 0 0 1 146.7294 128.391)"><tspan x="0" y="0" fill="#02ADCE" font-family="'Comfortaa'" font-size="108.5072">Cod</tspan><tspan x="214.047" y="0" fill="#FFFFFF" font-family="'Comfortaa'" font-size="108.5072">e</tspan><tspan x="281.864" y="0" fill="#02ADCE" font-family="'Comfortaa'" font-size="108.5072">a</tspan></text>
	</g>
	<g>
		<path fill="#F0585E" d="M14.46,81.09c1.519-31.906,27.623-57.304,59.603-57.304c8.561,0,13.378,0.651,20.796,3.732
			c0.534-1.823-0.157-5.846-0.974-7.166c-7.111-2.694-11.763-3.08-19.821-3.08C38.516,17.272,9.52,45.59,8,81.099"/>
		<path fill="#02ADCE" d="M98.819,145.886c0,0,6.412-42.501-47.891-67.86c0,0,28.235-1.199,41.668-18.103
			c21.501,6.646,39.976,18.512,47.46,27.659c-0.251,5.689-0.974,9.524-2.466,14.972C137.59,102.555,130.208,133.23,98.819,145.886z"
			/>
		<path fill="#F0585E" d="M140.214,83.339c0.126-3.709,1.727-44.14-42.62-61.699c0,0,7.892,15.818-3.143,35.705
			C94.45,57.346,123.555,65.968,140.214,83.339z"/>
		<path fill="#02ADCE" d="M7.948,84.829c0.419,36.505,29.862,65.968,66.121,65.968c8.434,0,13.145-0.557,20.544-3.488
			c0.66-2.263,0.094-5.532-0.063-6.663c-7.367,3.31-11.896,3.637-20.481,3.637c-32.686,0-59.234-26.532-59.668-59.427"/>
		<rect x="0" y="84.028" fill="none" width="102.856" height="70.756"/>
	</g>
	<g>
		
			<text transform="matrix(0.7588 -0.6856 0.6704 0.742 394.9349 143.8142)" fill="#0481B2" font-family="'Comfortaa'" font-size="108.5072">e</text>
		
			<text transform="matrix(0.7588 -0.6856 0.6704 0.742 394.9349 143.8142)" fill="#F0585E" font-family="'Comfortaa'" font-size="108.5072">e</text>
	</g>
</g>
</svg>
