<?xml version="1.0" encoding="utf-8"?>
<!-- Generator: Adobe Illustrator 17.0.0, SVG Export Plug-In . SVG Version: 6.00 Build 0)  -->
<!DOCTYPE svg PUBLIC "-//W3C//DTD SVG 1.1//EN" "http://www.w3.org/Graphics/SVG/1.1/DTD/svg11.dtd">
<svg version="1.1" id="Layer_1" xmlns="http://www.w3.org/2000/svg" xmlns:xlink="http://www.w3.org/1999/xlink" x="0px" y="0px"
	 width="50px" height="50px" viewBox="0 0 50 50" enable-background="new 0 0 50 50" xml:space="preserve">
<path fill="#FFFFFF" d="M45.356,0H4.642C3.667,0,2.935,0.825,3.021,1.8L6.74,43.473c0.086,0.974,0.929,1.994,1.874,2.258
	l14.66,4.072c0.944,0.262,2.487,0.263,3.432,0.003l14.678-4.066c0.946-0.263,1.788-1.273,1.874-2.249l3.72-41.69
	C47.065,0.825,46.336,0,45.356,0z M38.295,15.043c-0.001,0.006-0.006,0.011-0.012,0.012c-0.006,0.001-0.013-0.002-0.015-0.008
	l-11.485,4.707c-0.164,0.067-0.257,0.24-0.223,0.414c0.034,0.173,0.186,0.299,0.363,0.299h8.934c0.475,0,0.928,0.202,1.246,0.555
	c0.318,0.353,0.47,0.825,0.42,1.298l-1.396,13.095c-0.069,0.642-0.5,1.188-1.11,1.403l-9.483,3.337
	c-0.357,0.126-0.746,0.127-1.104,0.003l-9.438-3.269c-0.613-0.212-1.049-0.76-1.117-1.405l-0.633-5.93
	c-0.033-0.311,0.067-0.622,0.277-0.855c0.209-0.233,0.508-0.366,0.821-0.366h2.626c0.564,0,1.038,0.426,1.097,0.987l0.388,3.645
	l6.535,2.272l6.565-2.292l0.803-7.56H13.792c-0.563,0-1.035-0.423-1.097-0.983l-0.353-3.204c-0.054-0.489,0.222-0.954,0.676-1.141
	l11.88-4.898c0.135-0.056,0.211-0.198,0.183-0.341c-0.028-0.143-0.154-0.246-0.299-0.246H12.273c-0.377,0-0.692-0.284-0.732-0.659
	l-0.362-3.444c-0.022-0.207,0.045-0.414,0.185-0.569c0.139-0.155,0.338-0.243,0.547-0.243h26.172c0.21,0,0.409,0.089,0.549,0.246
	c0.14,0.156,0.206,0.365,0.182,0.573L38.295,15.043z"/>
</svg>
