<svg xmlns="http://www.w3.org/2000/svg" width="840" height="482" viewBox="0 0 840 482">
  <defs>
    <linearGradient id="curve-mobile-a" x1="50%" x2="50%" y1="0%" y2="100%">
      <stop offset="0%" stop-color="#21D1F9"/>
      <stop offset="100%" stop-color="#B222FF"/>
    </linearGradient>
  </defs>
  <path fill="none" stroke="url(#curve-mobile-a)" stroke-dasharray="5 5 5" d="M-79.8758303,1879.90935 C-29.5604576,1913.656 22.9900986,1949.90803 49.625626,2004.63313 C64.3467248,2034.87787 70.0108272,2068.71954 73.9694764,2102.17781 C76.7262027,2125.47242 78.7272241,2149.20662 74.5245879,2172.27978 C70.3211329,2195.35294 59.2008902,2217.99063 40.2214803,2231.53556 C32.2362258,2237.23382 22.6519554,2241.26045 12.8932916,2240.61592 C-4.1129343,2239.49379 -18.2879278,2222.13624 -16.1329816,2205.07452 C-13.9772167,2188.01279 4.05981362,2174.80004 20.800765,2178.02018 C38.708433,2181.46343 49.6731135,2199.0573 61.0070495,2213.46739 C72.3409855,2227.8783 91.1320832,2241.38109 107.486585,2233.25181 C115.200834,2229.41772 120.087944,2221.63384 124.488717,2214.17719 C158.231801,2157.00124 187.28018,2096.1482 231.273177,2046.57434 C275.266173,1997.00048 338.594735,1959.17514 404.203512,1965.84597 C476.88382,1973.23487 538.555235,2041.09588 539.584402,2114.81215 C540.375313,2171.49726 509.981729,2224.76309 508.747875,2281.44077 C508.488332,2293.3587 510.382098,2306.90776 520.012218,2313.80996 C524.994303,2317.38129 531.247904,2318.51747 537.284537,2319.47186 C563.457472,2323.60756 590.488455,2326.24019 614.232162,2338.10027 C637.97587,2349.96035 658.140828,2373.8276 656.66053,2400.52331 C655.840963,2415.31102 648.623695,2429.02783 646.699635,2443.7106 C643.784891,2465.9657 654.327916,2489.4702 672.820989,2501.94423 C691.314062,2514.41743 716.864748,2515.25944 736.12417,2504.02902" transform="scale(1 -1) rotate(-37 -3298.374 982.5)"/>
</svg>