<?xml version="1.0" encoding="utf-8"?>
<!-- Generator: Adobe Illustrator 17.0.0, SVG Export Plug-In . SVG Version: 6.00 Build 0)  -->
<!DOCTYPE svg PUBLIC "-//W3C//DTD SVG 1.1//EN" "http://www.w3.org/Graphics/SVG/1.1/DTD/svg11.dtd">
<svg version="1.1" id="Layer_1" xmlns="http://www.w3.org/2000/svg" xmlns:xlink="http://www.w3.org/1999/xlink" x="0px" y="0px"
	 width="100px" height="100px" viewBox="0 0 100 100" enable-background="new 0 0 100 100" xml:space="preserve">
<g>
	<g>
		<g>
			<path fill="#363636" d="M93.838,7.828H6.162C2.764,7.828,0,10.592,0,13.99v59.495c0,3.398,2.764,6.162,6.162,6.162h29.654
				l-1.199,9.596h-4.97c-0.809,0-1.465,0.656-1.465,1.465s0.656,1.465,1.465,1.465h40.707c0.809,0,1.465-0.656,1.465-1.465
				s-0.656-1.465-1.465-1.465h-4.969l-1.2-9.596h29.654c3.398,0,6.162-2.764,6.162-6.162V13.99
				C100,10.592,97.236,7.828,93.838,7.828z M37.569,89.242l1.2-9.596h5.391l0.529,2.115c0.611,2.442,2.795,4.147,5.312,4.147
				s4.701-1.705,5.312-4.147l0.529-2.115h5.391l1.199,9.596H37.569z M47.179,79.646h5.642l-0.351,1.405
				c-0.284,1.135-1.299,1.928-2.47,1.928s-2.186-0.793-2.47-1.928L47.179,79.646z M97.07,73.485L97.07,73.485
				c0,1.782-1.45,3.232-3.232,3.232H6.162c-1.782,0-3.232-1.45-3.232-3.232V13.99c0-1.782,1.45-3.232,3.232-3.232h87.676
				c1.782,0,3.232,1.45,3.232,3.232C97.07,13.99,97.07,73.485,97.07,73.485z"/>
		</g>
	</g>
	<g>
		<g>
			<path fill="#363636" d="M82.879,14.091H7.727c-0.809,0-1.465,0.656-1.465,1.465v56.363c0,0.809,0.656,1.465,1.465,1.465h3.131
				c0.809,0,1.465-0.656,1.465-1.465s-0.656-1.465-1.465-1.465H9.192V17.021h73.686c0.809,0,1.465-0.656,1.465-1.465
				C84.343,14.747,83.688,14.091,82.879,14.091z"/>
		</g>
	</g>
	<g>
		<g>
			<path fill="#363636" d="M92.273,14.091h-3.131c-0.809,0-1.465,0.656-1.465,1.465s0.656,1.465,1.465,1.465h1.667v53.434H17.121
				c-0.809,0-1.465,0.656-1.465,1.465s0.656,1.465,1.465,1.465h75.151c0.809,0,1.465-0.656,1.465-1.465V15.556
				C93.738,14.747,93.082,14.091,92.273,14.091z"/>
		</g>
	</g>
	<g>
		<g>
			<path fill="#363636" d="M69.941,30.309c-0.263-0.337-0.66-0.541-1.087-0.561L34.41,28.183c-0.027-0.001-0.053-0.002-0.08-0.001
				c-0.204-0.669-0.635-1.25-1.218-1.639l-4.218-2.812c-0.673-0.449-1.583-0.267-2.031,0.406c-0.449,0.673-0.267,1.583,0.406,2.031
				l4.218,2.812c0.02,0.013,0.035,0.033,0.041,0.056l5.373,18.805c0.168,0.586,0.443,1.113,0.797,1.568l-1.966,3.932
				c-0.473,0.946-0.424,2.048,0.133,2.948c0.202,0.326,0.458,0.604,0.752,0.827c-0.385,0.672-0.606,1.449-0.606,2.277
				c0,2.534,2.062,4.596,4.596,4.596s4.596-2.062,4.596-4.596c0-0.588-0.112-1.149-0.314-1.666h13.355
				c-0.202,0.517-0.314,1.079-0.314,1.666c0,2.534,2.062,4.596,4.596,4.596s4.596-2.062,4.596-4.596c0-0.735-0.174-1.43-0.483-2.047
				c0.296-0.268,0.483-0.654,0.483-1.085c0-0.809-0.656-1.465-1.465-1.465H38.442c-0.021,0-0.056,0-0.086-0.048
				c-0.029-0.048-0.014-0.079-0.004-0.098l1.811-3.622c0.369,0.095,0.753,0.146,1.146,0.146c0.181,0,0.364-0.011,0.548-0.032
				l20.583-2.421c2.658-0.313,4.797-2.286,5.322-4.911l2.462-12.311C70.308,31.08,70.205,30.646,69.941,30.309z M62.525,57.728
				c0.919,0,1.666,0.748,1.666,1.666c0,0.919-0.747,1.666-1.666,1.666s-1.666-0.747-1.666-1.666S61.606,57.728,62.525,57.728z
				 M40.606,57.728c0.919,0,1.666,0.747,1.666,1.666s-0.747,1.666-1.666,1.666s-1.666-0.747-1.666-1.666
				S39.687,57.728,40.606,57.728z M37.014,37.576l-1.836-6.425l5.856,0.266l1.015,6.159H37.014z M41.514,48.234
				c-0.817,0.096-1.572-0.408-1.797-1.197l-1.866-6.531h4.682l1.231,7.464L41.514,48.234z M50.101,47.224l-3.424,0.403l-1.174-7.121
				h4.598V47.224z M50.101,37.576H45.02l-0.993-6.022l6.074,0.276V37.576z M57.519,46.351l-4.489,0.528v-6.374h5.018L57.519,46.351z
				 M58.314,37.576h-5.283v-5.613l5.767,0.262L58.314,37.576z M64.889,43.237c-0.275,1.377-1.397,2.412-2.792,2.576l-1.605,0.189
				l0.497-5.496h4.445L64.889,43.237z M66.021,37.576h-4.766l0.472-5.218l5.289,0.24L66.021,37.576z"/>
		</g>
	</g>
</g>
</svg>
