<?xml version="1.0" encoding="utf-8"?>
<!-- Generator: Adobe Illustrator 17.0.0, SVG Export Plug-In . SVG Version: 6.00 Build 0)  -->
<!DOCTYPE svg PUBLIC "-//W3C//DTD SVG 1.1//EN" "http://www.w3.org/Graphics/SVG/1.1/DTD/svg11.dtd">
<svg version="1.1" id="Layer_1" xmlns="http://www.w3.org/2000/svg" xmlns:xlink="http://www.w3.org/1999/xlink" x="0px" y="0px"
	 width="50px" height="50px" viewBox="0 0 50 50" enable-background="new 0 0 50 50" xml:space="preserve">
<g>
	<path fill="#FFFFFF" d="M37.498,0.01L31.014,0C23.73,0,19.023,4.83,19.023,12.305v5.673h-6.519c-0.563,0-1.02,0.457-1.02,1.02v8.22
		c0,0.563,0.457,1.02,1.02,1.02h6.519V48.98c0,0.563,0.456,1.02,1.02,1.02h8.506c0.563,0,1.02-0.457,1.02-1.02V28.238h7.623
		c0.563,0,1.02-0.456,1.02-1.02l0.003-8.22c0-0.27-0.108-0.53-0.299-0.721s-0.451-0.299-0.721-0.299h-7.625v-4.809
		c0-2.312,0.551-3.485,3.562-3.485l4.368-0.002c0.563,0,1.019-0.457,1.019-1.02V1.03C38.516,0.468,38.061,0.011,37.498,0.01z"/>
</g>
</svg>
