<?xml version="1.0" encoding="utf-8"?>
<!-- Generator: Adobe Illustrator 17.0.0, SVG Export Plug-In . SVG Version: 6.00 Build 0)  -->
<!DOCTYPE svg PUBLIC "-//W3C//DTD SVG 1.1//EN" "http://www.w3.org/Graphics/SVG/1.1/DTD/svg11.dtd">
<svg version="1.1" id="Layer_1" xmlns="http://www.w3.org/2000/svg" xmlns:xlink="http://www.w3.org/1999/xlink" x="0px" y="0px"
	 width="50px" height="50px" viewBox="0 0 50 50" enable-background="new 0 0 50 50" xml:space="preserve">
<path fill="#EFCF14" d="M48.915,22.757c0.984-0.959,1.332-2.367,0.907-3.675c-0.426-1.309-1.534-2.243-2.895-2.441L34.82,14.882
	c-0.516-0.075-0.961-0.398-1.191-0.866L28.216,3.047C27.609,1.814,26.375,1.048,25,1.048c-1.374,0-2.607,0.766-3.215,1.998
	l-5.413,10.97c-0.23,0.468-0.677,0.791-1.192,0.866L3.073,16.642c-1.361,0.197-2.47,1.132-2.895,2.441
	c-0.425,1.309-0.077,2.716,0.907,3.675l8.76,8.538c0.373,0.364,0.545,0.889,0.457,1.402L8.234,44.755
	c-0.183,1.061,0.095,2.094,0.782,2.907c1.067,1.269,2.931,1.655,4.42,0.872l10.827-5.693c0.453-0.237,1.022-0.235,1.474,0
	l10.828,5.693c0.527,0.277,1.088,0.418,1.668,0.418c1.058,0,2.061-0.471,2.751-1.29c0.688-0.814,0.965-1.848,0.782-2.907
	l-2.067-12.056c-0.088-0.514,0.083-1.037,0.457-1.402L48.915,22.757z"/>
</svg>
