<?xml version="1.0" encoding="utf-8"?>
<!-- Generator: Adobe Illustrator 17.0.0, SVG Export Plug-In . SVG Version: 6.00 Build 0)  -->
<!DOCTYPE svg PUBLIC "-//W3C//DTD SVG 1.1//EN" "http://www.w3.org/Graphics/SVG/1.1/DTD/svg11.dtd">
<svg version="1.1" id="Layer_1" xmlns="http://www.w3.org/2000/svg" xmlns:xlink="http://www.w3.org/1999/xlink" x="0px" y="0px"
	 width="50px" height="50px" viewBox="0 0 50 50" enable-background="new 0 0 50 50" xml:space="preserve">
<path fill="#FFFFFF" d="M11.081,30.216l-1.74,6.497l-6.361,0.135C1.078,33.321,0,29.287,0,25c0-4.146,1.008-8.055,2.795-11.497
	h0.001l5.663,1.038l2.481,5.629c-0.519,1.514-0.802,3.139-0.802,4.83C10.139,26.835,10.471,28.593,11.081,30.216z"/>
<path fill="#FFFFFF" d="M49.563,20.33C49.85,21.842,50,23.404,50,25c0,1.79-0.188,3.536-0.547,5.22
	c-1.217,5.731-4.397,10.735-8.802,14.276l-0.001-0.001l-7.133-0.364l-1.01-6.302c2.923-1.714,5.207-4.397,6.411-7.608H25.55v-9.89
	h13.563H49.563L49.563,20.33z"/>
<path fill="#FFFFFF" d="M40.65,44.495l0.001,0.001C36.367,47.94,30.924,50,25,50c-9.521,0-17.798-5.321-22.021-13.152l8.102-6.632
	c2.111,5.635,7.547,9.646,13.919,9.646c2.739,0,5.305-0.74,7.507-2.033L40.65,44.495z"/>
<path fill="#FFFFFF" d="M40.957,5.755l-8.099,6.63c-2.279-1.424-4.973-2.247-7.858-2.247c-6.517,0-12.054,4.195-14.059,10.032
	l-8.144-6.668H2.795C6.956,5.481,15.338,0,25,0C31.066,0,36.628,2.161,40.957,5.755z"/>
</svg>
