<?xml version="1.0" encoding="utf-8"?>
<!-- Generator: Adobe Illustrator 17.0.0, SVG Export Plug-In . SVG Version: 6.00 Build 0)  -->
<!DOCTYPE svg PUBLIC "-//W3C//DTD SVG 1.1//EN" "http://www.w3.org/Graphics/SVG/1.1/DTD/svg11.dtd">
<svg version="1.1" id="Layer_1" xmlns="http://www.w3.org/2000/svg" xmlns:xlink="http://www.w3.org/1999/xlink" x="0px" y="0px"
	 width="100px" height="100px" viewBox="0 0 100 100" style="enable-background:new 0 0 100 100;" xml:space="preserve">
<g>
	<g>
		<g>
			<g>
				<path style="fill:#FFFFFF;" d="M90.311,16.393c-2.898,0.999-4.302,3.684-4.668,6.719C85.278,26.148,86.56,46.11,86.56,46.11
					l-8.975,11.976c-0.418,0.557-1.496,0.691-2.051,0.275c-0.652-0.489-0.734-1.438-0.29-2.03l5.492-7.326
					c1.922-2.564,2.404-6.688-0.567-8.914c-3.156-2.366-6.793-0.609-8.716,1.955c-3.335,4.449-3.965,5.328-3.965,5.328
					c-1.336,1.782-2.798,3.51-4.587,4.344c-2.343,1.143-4.486,2.879-6.198,5.163c-2.874,3.834-3.918,8.412-3.271,12.573
					l2.935,21.721l24.362-3.485l-1.162-8.121l17.618-23.501c1.754-2.339,2.588-5.241,2.345-8.152L93.611,18.62
					C93.477,17.001,91.848,15.866,90.311,16.393z"/>
			</g>
		</g>
		<g>
			<g>
				<path style="fill:#FFFFFF;" d="M6.439,18.467l-5.97,29.285c-0.247,2.911,0.582,5.814,2.332,8.156L20.38,79.438l-1.175,8.119
					l24.356,3.526l2.972-21.716c0.654-4.16-0.382-8.74-3.25-12.579c-1.708-2.286-3.848-4.026-6.189-5.173
					c-1.787-0.837-3.246-2.567-4.58-4.352c0,0-0.629-0.881-3.957-5.335c-1.918-2.568-5.552-4.331-8.712-1.97
					c-2.974,2.222-2.5,6.346-0.582,8.913l5.48,7.335c0.443,0.593,0.359,1.542-0.294,2.03c-0.555,0.415-1.634,0.279-2.051-0.278
					l-8.955-11.991c0,0,1.315-19.96,0.955-22.996c-0.36-3.036-1.76-5.723-4.656-6.727C8.207,15.716,6.577,16.847,6.439,18.467z"/>
			</g>
		</g>
	</g>
	<g>
		<path style="fill:#FFFFFF;" d="M54.614,15.267c2.062,1.293,3.508,3.481,3.771,6.02c0.841,0.393,1.774,0.619,2.764,0.619
			c3.613,0,6.541-2.928,6.541-6.54c0-3.613-2.928-6.541-6.541-6.541C57.571,8.827,54.668,11.703,54.614,15.267z M50.329,28.659
			c3.613,0,6.541-2.929,6.541-6.541s-2.929-6.54-6.541-6.54s-6.542,2.929-6.542,6.541S46.717,28.659,50.329,28.659z M53.103,29.105
			h-5.55c-4.618,0-8.375,3.757-8.375,8.375v6.787l0.017,0.106l0.468,0.146c4.407,1.377,8.235,1.836,11.387,1.836
			c6.155,0,9.722-1.755,9.942-1.867l0.437-0.221h0.047V37.48C61.478,32.862,57.721,29.105,53.103,29.105z M63.925,22.353h-5.507
			c-0.06,2.203-1,4.188-2.488,5.615c4.105,1.221,7.108,5.027,7.108,9.523v2.092c5.438-0.199,8.571-1.74,8.777-1.844l0.437-0.222
			h0.047v-6.789C72.298,26.11,68.542,22.353,63.925,22.353z M38.852,21.908c1.28,0,2.47-0.373,3.478-1.01
			c0.321-2.091,1.441-3.918,3.043-5.163c0.007-0.122,0.018-0.244,0.018-0.367c0-3.613-2.929-6.541-6.54-6.541
			c-3.613,0-6.541,2.928-6.541,6.541C32.311,18.979,35.239,21.908,38.852,21.908z M44.726,27.967
			c-1.48-1.42-2.418-3.393-2.486-5.583c-0.204-0.015-0.406-0.031-0.614-0.031h-5.549c-4.618,0-8.375,3.757-8.375,8.374v6.788
			l0.017,0.105l0.468,0.147c3.535,1.104,6.69,1.612,9.431,1.773v-2.05C37.618,32.994,40.62,29.189,44.726,27.967z"/>
	</g>
</g>
</svg>
