<?xml version="1.0" encoding="utf-8"?>
<!-- Generator: Adobe Illustrator 17.0.0, SVG Export Plug-In . SVG Version: 6.00 Build 0)  -->
<!DOCTYPE svg PUBLIC "-//W3C//DTD SVG 1.1//EN" "http://www.w3.org/Graphics/SVG/1.1/DTD/svg11.dtd">
<svg version="1.1" id="Layer_1" xmlns="http://www.w3.org/2000/svg" xmlns:xlink="http://www.w3.org/1999/xlink" x="0px" y="0px"
	 width="50px" height="50px" viewBox="0 0 50 50" enable-background="new 0 0 50 50" xml:space="preserve">
<g>
	<g>
		<path fill="#FFFFFF" d="M7.603,45.081l16.782,4.736c0.305,0.086,0.799,0.087,1.103,0.001l16.907-4.738
			c0.305-0.085,0.574-0.41,0.603-0.726l3.887-43.666c0.028-0.315-0.206-0.571-0.523-0.571H3.637c-0.316,0-0.55,0.256-0.522,0.571
			l3.887,43.666C7.029,44.67,7.299,44.995,7.603,45.081z M11.8,9.279h26.399c0.316,0,0.55,0.256,0.521,0.571l-0.394,4.311
			c-0.029,0.315-0.309,0.571-0.625,0.571H17.845c-0.316,0-0.552,0.256-0.526,0.571l0.372,4.498c0.026,0.315,0.304,0.571,0.621,0.571
			h18.921c0.316,0,0.55,0.256,0.521,0.571l-1.453,15.809c-0.029,0.315-0.3,0.639-0.605,0.723l-10.081,2.781
			c-0.305,0.084-0.553,0.159-0.553,0.167S25.034,40.438,25,40.438s-0.309-0.068-0.615-0.152L14.21,37.475
			c-0.305-0.084-0.573-0.409-0.598-0.724l-0.595-7.52c-0.025-0.316,0.211-0.571,0.528-0.571h4.307c0.316,0,0.597,0.256,0.626,0.571
			l0.299,3.221c0.029,0.315,0.301,0.638,0.606,0.72l5.001,1.352c0.305,0.082,0.801,0.083,1.107,0.001l5.032-1.354
			c0.305-0.082,0.578-0.404,0.609-0.719l0.575-5.963c0.03-0.315-0.202-0.57-0.518-0.57H13.265c-0.316,0-0.595-0.256-0.624-0.571
			L11.278,9.85C11.25,9.534,11.484,9.279,11.8,9.279z"/>
	</g>
</g>
</svg>
