<?xml version="1.0" encoding="utf-8"?>
<!-- Generator: Adobe Illustrator 17.0.0, SVG Export Plug-In . SVG Version: 6.00 Build 0)  -->
<!DOCTYPE svg PUBLIC "-//W3C//DTD SVG 1.1//EN" "http://www.w3.org/Graphics/SVG/1.1/DTD/svg11.dtd">
<svg version="1.1" id="Layer_1" xmlns="http://www.w3.org/2000/svg" xmlns:xlink="http://www.w3.org/1999/xlink" x="0px" y="0px"
	 width="50px" height="50px" viewBox="0 0 50 50" enable-background="new 0 0 50 50" xml:space="preserve">
<g>
	<path fill="none" stroke="#FFFFFF" stroke-width="2" stroke-miterlimit="10" d="M49,44.088C49,46.801,46.851,49,44.2,49H5.8
		C3.149,49,1,46.801,1,44.088V5.912C1,3.199,3.149,1,5.8,1h38.4C46.851,1,49,3.199,49,5.912V44.088z"/>
	<g enable-background="new    ">
		<path fill="#FCFCFC" d="M10.36,18.501c0.031,0.93-0.651,1.673-1.735,1.673c-0.961,0-1.643-0.743-1.643-1.673
			c0-0.961,0.713-1.705,1.704-1.705C9.709,16.796,10.36,17.54,10.36,18.501z M7.323,37.715V22.716h2.727v14.999H7.323z"/>
	</g>
	<g enable-background="new    ">
		<path fill="#FFFFFF" d="M28.043,29.087c0,5.89-2.805,8.654-7.052,8.654c-4.247,0-7.052-2.765-7.052-8.654V17.386
			c0-5.89,2.805-8.654,7.052-8.654c4.248,0,7.052,2.765,7.052,8.654V29.087z M24.196,18.107c0-4.007-0.961-5.81-3.206-5.81
			c-2.244,0-3.206,1.803-3.206,5.81v10.258c0,4.007,0.962,5.811,3.206,5.811c2.244,0,3.206-1.804,3.206-5.811V18.107z"/>
		<path fill="#FFFFFF" d="M30.407,31.771l2.484-1.322c1.202,2.364,2.845,3.727,4.688,3.727c1.804,0,2.806-1.282,2.806-4.088v-0.801
			c0-2.685-0.762-3.606-3.086-4.408l-1.162-0.4c-4.087-1.402-5.369-3.165-5.369-8.054v-0.401c0-4.247,1.804-7.292,6.411-7.292
			c4.447,0,6.451,3.045,6.451,8.374h-3.847c-0.04-3.325-0.561-4.808-2.604-4.808c-1.803,0-2.564,1.322-2.564,3.807v0.521
			c0,2.685,0.762,3.606,3.085,4.407l1.162,0.401c4.088,1.402,5.37,3.165,5.37,8.054v0.681c0,4.568-2.164,7.573-6.572,7.573
			C34.494,37.741,31.89,35.418,30.407,31.771z"/>
	</g>
</g>
</svg>
