<?xml version="1.0" encoding="utf-8"?>
<!-- Generator: Adobe Illustrator 17.0.0, SVG Export Plug-In . SVG Version: 6.00 Build 0)  -->
<!DOCTYPE svg PUBLIC "-//W3C//DTD SVG 1.1//EN" "http://www.w3.org/Graphics/SVG/1.1/DTD/svg11.dtd">
<svg version="1.1" id="Layer_1" xmlns="http://www.w3.org/2000/svg" xmlns:xlink="http://www.w3.org/1999/xlink" x="0px" y="0px"
	 width="100px" height="100px" viewBox="0 0 100 100" enable-background="new 0 0 100 100" xml:space="preserve">
<g id="Layer_1_1_" display="none">
	<g display="inline">
		<circle fill="#48A4D8" cx="50" cy="50" r="50"/>
		<circle fill="none" stroke="#FFFFFF" stroke-width="1.1688" stroke-miterlimit="10" cx="50" cy="50" r="43.516"/>
		<path fill="#FFFFFF" d="M72.969,58.75c0.469,0,0.938-0.391,0.938-0.937V29.766c0-0.469-0.391-0.938-0.938-0.938H57.5l-4.844-4.844
			c-0.156-0.156-0.391-0.234-0.625-0.234l0,0c-0.234,0-0.469,0.078-0.625,0.234l-5.078,5.156c-0.313,0.313-0.313,0.859,0,1.25
			l4.844,4.922v4.297h-8.516c-0.469,0-0.938,0.391-0.938,0.938v2.422H34.53v-2.5c0-0.469-0.391-0.937-0.938-0.937h-6.641
			c-0.469,0-0.938,0.391-0.938,0.937v6.641c0,0.469,0.391,0.937,0.938,0.937h2.344v9.844c0,0.469,0.391,0.938,0.938,0.938h12.656
			l-1.484,1.484c-0.313,0.313-0.313,0.859,0,1.25c0.313,0.313,0.859,0.313,1.25,0l1.797-1.797l0.156,0.313
			c0.469,0.938,1.094,1.719,1.875,2.344c1.25,0.938,2.813,1.484,4.375,1.641h0.234v3.828h-4.688c-0.469,0-0.937,0.391-0.937,0.937
			v6.641c0,0.469,0.391,0.938,0.937,0.938H57.5c0.469,0,0.937-0.391,0.937-0.938v-6.641c0-0.469-0.391-0.937-0.937-0.937h-4.688
			v-3.75h0.234c1.563-0.156,3.047-0.781,4.375-1.719c0.859-0.625,1.484-1.406,1.953-2.344l0.156-0.313l1.797,1.797
			c0.313,0.313,0.859,0.313,1.25,0c0.313-0.313,0.313-0.859,0-1.25l-1.406-1.484L72.969,58.75z M48.203,29.766l3.828-3.828
			l3.828,3.828l-3.828,3.828L48.203,29.766z M43.516,41.328h17.109v4.922H43.516V41.328z M44.531,56.094l-1.797-1.797
			c-0.313-0.313-0.859-0.313-1.25,0c-0.313,0.313-0.313,0.859,0,1.25l1.484,1.484H31.172v-9.063h2.5
			c0.469,0,0.938-0.391,0.938-0.937v-2.422h7.188v2.422c0,0.469,0.391,0.937,0.938,0.937h8.516v3.828h-0.234
			c-1.563,0.156-3.125,0.703-4.375,1.641c-0.859,0.625-1.484,1.406-1.953,2.344L44.531,56.094z M56.641,69.609v4.922h-9.297v-4.922
			H56.641z M59.453,56.172l-0.078-0.313c-0.469-0.937-1.094-1.719-1.953-2.344c-1.25-0.937-2.813-1.484-4.375-1.641h-0.234v-3.828
			h8.516c0.469,0,0.937-0.391,0.937-0.937v-6.641c0-0.469-0.391-0.938-0.937-0.938H52.97v-4.297l4.609-4.609H72.11v26.328H61.172
			l1.484-1.484c0.313-0.313,0.313-0.859,0-1.25c-0.313-0.313-0.859-0.313-1.25,0L59.453,56.172z"/>
	</g>
</g>
<circle fill="#F2A24C" cx="50" cy="50" r="50"/>
<circle fill="none" stroke="#FFFFFF" stroke-width="1.1688" stroke-miterlimit="10" cx="50" cy="50.625" r="43.516"/>
<path fill="#FFFFFF" d="M68.204,66.134c3.814-4.298,6.137-9.949,6.137-16.134c0-6.435-2.515-12.291-6.607-16.648v-0.001
	c-0.003-0.005-0.008-0.007-0.011-0.011c-4.263-4.532-10.236-7.433-16.88-7.66l-0.001-0.001l-0.474-0.013
	c-0.123-0.004-0.245-0.008-0.368-0.008s-0.246,0.004-0.368,0.008l-0.473,0.013l-0.001,0.001c-6.644,0.227-12.617,3.128-16.88,7.66
	c-0.003,0.004-0.008,0.006-0.011,0.011c0,0,0,0.001-0.001,0.002C28.173,37.709,25.658,43.565,25.658,50
	c0,6.185,2.323,11.836,6.137,16.134c0.005,0.008,0.005,0.016,0.011,0.023c0.015,0.021,0.037,0.031,0.053,0.05
	c4.286,4.791,10.435,7.877,17.298,8.112l0.001,0.001l0.473,0.013c0.123,0.003,0.246,0.008,0.369,0.008s0.246-0.004,0.368-0.008
	l0.473-0.013l0.001-0.001c6.87-0.236,13.026-3.328,17.312-8.129c0.011-0.014,0.029-0.018,0.039-0.034
	C68.199,66.15,68.199,66.142,68.204,66.134z M27.358,50.839h10.075c0.095,3.558,0.79,7.015,2.027,10.255
	c-2.387,0.864-4.669,2.022-6.808,3.467C29.507,60.82,27.549,56.052,27.358,50.839z M33.11,34.911
	c2.088,1.358,4.312,2.446,6.631,3.258c-1.42,3.447-2.206,7.164-2.308,10.992H27.358C27.559,43.699,29.697,38.726,33.11,34.911z
	 M72.642,49.161H62.567c-0.102-3.828-0.888-7.544-2.308-10.992c2.319-0.813,4.543-1.9,6.631-3.258
	C70.303,38.726,72.441,43.699,72.642,49.161z M49.161,38.218c-2.427-0.069-4.809-0.431-7.11-1.077c1.701-3.49,4.104-6.64,7.11-9.263
	V38.218z M49.161,39.897v9.264H39.112c0.103-3.65,0.869-7.189,2.238-10.471C43.873,39.421,46.492,39.825,49.161,39.897z
	 M50.839,39.897c2.668-0.071,5.288-0.475,7.812-1.207c1.369,3.282,2.135,6.822,2.238,10.471h-10.05V39.897z M50.839,38.218v-10.34
	c3.007,2.623,5.409,5.773,7.11,9.263C55.648,37.787,53.266,38.149,50.839,38.218z M59.576,36.631
	c-1.612-3.378-3.85-6.456-6.621-9.095c4.915,0.643,9.338,2.866,12.744,6.142C63.766,34.906,61.714,35.893,59.576,36.631z
	 M40.424,36.631c-2.138-0.738-4.189-1.725-6.122-2.952c3.405-3.277,7.829-5.5,12.744-6.142
	C44.274,30.174,42.036,33.252,40.424,36.631z M39.112,50.839h10.049v8.426c-2.776,0.074-5.495,0.507-8.109,1.293
	C39.871,57.491,39.207,54.213,39.112,50.839z M49.161,60.944v11.179c-3.218-2.808-5.741-6.219-7.457-10.003
	C44.11,61.41,46.61,61.016,49.161,60.944z M50.839,72.122V60.944c2.551,0.071,5.05,0.467,7.457,1.175
	C56.581,65.903,54.058,69.315,50.839,72.122z M50.839,59.265v-8.426h10.049c-0.095,3.373-0.759,6.651-1.941,9.72
	C56.335,59.772,53.615,59.339,50.839,59.265z M62.567,50.839h10.075c-0.191,5.212-2.148,9.981-5.294,13.722
	c-2.139-1.445-4.421-2.604-6.808-3.467C61.778,57.855,62.472,54.397,62.567,50.839z M33.793,65.819c1.986-1.319,4.1-2.38,6.31-3.174
	c1.633,3.66,3.976,6.994,6.942,9.819C41.882,71.788,37.261,69.371,33.793,65.819z M52.955,72.464
	c2.966-2.824,5.31-6.158,6.942-9.819c2.209,0.793,4.323,1.854,6.31,3.174C62.739,69.371,58.118,71.788,52.955,72.464z"/>
</svg>
