<?xml version="1.0" encoding="utf-8"?>
<!-- Generator: Adobe Illustrator 17.0.0, SVG Export Plug-In . SVG Version: 6.00 Build 0)  -->
<!DOCTYPE svg PUBLIC "-//W3C//DTD SVG 1.1//EN" "http://www.w3.org/Graphics/SVG/1.1/DTD/svg11.dtd">
<svg version="1.1" id="Layer_1" xmlns="http://www.w3.org/2000/svg" xmlns:xlink="http://www.w3.org/1999/xlink" x="0px" y="0px"
	 width="100px" height="100px" viewBox="0 0 100 100" enable-background="new 0 0 100 100" xml:space="preserve">
<path fill="#363636" d="M91.463,24.072C79.032,4.247,54.253-3.926,32.467,4.612C10.68,13.15-1.948,35.983,2.401,58.975
	c4.348,22.993,24.442,39.637,47.842,39.628c16.735-0.058,32.28-8.664,41.212-22.816h7.462V24.072H91.463z M87.829,24.072H56.327
	v30.685l-8.061-2.304l-4.107-8.206v-4.995l3.633-2.905L51.56,21.28l5.923-3.292h13.689l7.19-3.994l-0.022-0.038
	c3.66,2.87,6.861,6.281,9.493,10.116C87.833,24.072,87.829,24.072,87.829,24.072z M4.611,49.93
	C4.604,38.697,8.755,27.861,16.267,19.509h6.084l5.076,3.803v11.764l-2.613,4.574l-6.034,3.016l-3.521,5.287v8.88l9.431,6.285
	l1.891,4.411l-1.199,4.191l-7.469,4.069h-5.24C7.415,68.191,4.602,59.169,4.611,49.93z M50.243,95.562
	c-6.562,0.004-13.046-1.416-19.005-4.163l5.737-3.442H47.47l11.698-4.386l11.031,7.354C63.986,93.966,57.161,95.552,50.243,95.562z
	 M73.235,89.287l-13.672-9.112l-12.638,4.739h-10.8l-7.968,4.781l0.142,0.234c-5.114-2.818-9.643-6.585-13.346-11.099h3.729
	l9.267-5.053l1.843-6.457l-2.672-6.236L18.301,55.2v-6.335l2.563-3.844l6.135-3.068l3.471-6.069V21.79l-7.099-5.324h-4.106
	c15.5-14.37,38.84-16.215,56.405-4.458l-5.286,2.937h-13.69l-7.766,4.314L45.09,34.613l-3.973,3.179v7.173l5.02,10.047l10.191,2.911
	v17.865h31.514C84.02,81.304,79.034,85.912,73.235,89.287z M95.874,72.746H59.369V63.62h36.505V72.746z M95.874,60.577H59.369
	v-9.126h36.505V60.577z M95.874,48.409H59.369v-9.126h36.505V48.409z M95.874,36.24H59.369v-9.126h36.505V36.24z"/>
</svg>
