<?xml version="1.0" encoding="utf-8"?>
<!-- Generator: Adobe Illustrator 17.0.0, SVG Export Plug-In . SVG Version: 6.00 Build 0)  -->
<!DOCTYPE svg PUBLIC "-//W3C//DTD SVG 1.1//EN" "http://www.w3.org/Graphics/SVG/1.1/DTD/svg11.dtd">
<svg version="1.1" id="Layer_1" xmlns="http://www.w3.org/2000/svg" xmlns:xlink="http://www.w3.org/1999/xlink" x="0px" y="0px"
	 width="50px" height="50px" viewBox="0 0 50 50" enable-background="new 0 0 50 50" xml:space="preserve">
<g id="XMLID_7_">
	<path id="XMLID_8_" fill="#FFFFFF" d="M24.752,9.264c-2.31,1.625-4.929,3.467-6.332,6.514c-2.437,5.316,4.987,11.114,5.304,11.359
		c0.074,0.057,0.162,0.085,0.25,0.085c0.093,0,0.187-0.032,0.263-0.096c0.147-0.123,0.189-0.333,0.101-0.503
		c-0.027-0.052-2.691-5.228-2.592-8.941c0.035-1.293,1.845-2.76,3.761-4.313c1.755-1.423,3.744-3.035,4.908-4.921
		c2.555-4.152-0.285-8.235-0.314-8.275c-0.113-0.158-0.321-0.216-0.499-0.138c-0.178,0.078-0.276,0.271-0.236,0.461
		c0.006,0.027,0.558,2.727-0.979,5.508C27.754,7.153,26.363,8.132,24.752,9.264z"/>
	<path id="XMLID_9_" fill="#FFFFFF" d="M34.486,11.095c0.163-0.123,0.211-0.347,0.112-0.525c-0.099-0.179-0.314-0.258-0.504-0.185
		c-0.392,0.149-9.611,3.702-9.611,7.996c0,2.959,1.264,4.523,2.187,5.665c0.362,0.448,0.675,0.834,0.778,1.165
		c0.29,0.951-0.397,2.671-0.686,3.253c-0.083,0.168-0.042,0.37,0.099,0.493c0.077,0.066,0.172,0.1,0.268,0.1
		c0.081,0,0.163-0.024,0.234-0.073c0.159-0.11,3.874-2.737,3.207-5.902c-0.248-1.203-0.839-2.082-1.361-2.857
		c-0.808-1.201-1.392-2.069-0.506-3.673C29.741,14.681,34.439,11.131,34.486,11.095z"/>
	<path id="XMLID_10_" fill="#FFFFFF" d="M10.49,29.124c-0.158,0.473-0.083,0.943,0.216,1.358c0.999,1.387,4.539,2.151,9.968,2.151
		c0,0,0,0,0.001,0c0.736,0,1.512-0.014,2.308-0.043c8.679-0.311,11.898-3.015,12.031-3.129c0.145-0.125,0.183-0.334,0.093-0.503
		c-0.09-0.169-0.284-0.253-0.47-0.202c-3.057,0.835-8.764,1.131-12.723,1.131c-4.43,0-6.686-0.319-7.238-0.555
		c0.283-0.389,2.031-1.084,4.198-1.51c0.207-0.041,0.349-0.232,0.329-0.442c-0.02-0.21-0.197-0.37-0.408-0.37
		C17.523,27.01,11.156,27.112,10.49,29.124z"/>
	<path id="XMLID_11_" fill="#FFFFFF" d="M39.532,26.34c-1.79,0-3.488,0.897-3.559,0.935c-0.166,0.089-0.25,0.279-0.204,0.461
		c0.046,0.182,0.209,0.31,0.397,0.31c0.038,0,3.819,0.031,4.161,2.191c0.303,1.863-3.577,4.883-5.098,5.889
		c-0.164,0.109-0.228,0.319-0.152,0.5c0.065,0.155,0.215,0.251,0.378,0.251c0.028,0,0.057-0.003,0.086-0.009
		c0.361-0.077,8.829-1.943,7.933-6.873C42.928,26.974,41.029,26.34,39.532,26.34z"/>
	<path id="XMLID_12_" fill="#FFFFFF" d="M33.725,35.523c0.03-0.158-0.036-0.319-0.168-0.411l-2.03-1.422
		c-0.099-0.069-0.224-0.091-0.34-0.06c-0.021,0.006-2.144,0.564-5.227,0.906c-1.223,0.137-2.594,0.21-3.963,0.21
		c-3.082,0-5.097-0.362-5.39-0.628c-0.039-0.075-0.027-0.109-0.02-0.127c0.053-0.148,0.339-0.325,0.523-0.394
		c0.203-0.075,0.313-0.296,0.25-0.504c-0.063-0.208-0.277-0.33-0.488-0.279c-2.037,0.491-3.033,1.179-2.96,2.043
		c0.129,1.532,3.677,2.318,6.676,2.526c0.431,0.03,0.898,0.045,1.386,0.045c0,0,0,0,0.001,0c4.988,0,11.382-1.565,11.446-1.581
		C33.577,35.807,33.696,35.681,33.725,35.523z"/>
	<path id="XMLID_13_" fill="#FFFFFF" d="M18.418,38.811c0.154-0.1,0.222-0.29,0.167-0.465c-0.054-0.175-0.218-0.29-0.402-0.288
		c-0.273,0.007-2.671,0.115-2.839,1.642c-0.051,0.456,0.08,0.873,0.389,1.239c0.861,1.02,3.185,1.627,7.104,1.854
		c0.464,0.028,0.934,0.042,1.4,0.042c4.982,0,8.337-1.56,8.478-1.626c0.136-0.064,0.226-0.198,0.234-0.349
		c0.008-0.15-0.067-0.293-0.196-0.372l-2.566-1.566c-0.089-0.054-0.196-0.072-0.297-0.051c-0.016,0.003-1.645,0.341-4.104,0.675
		c-0.465,0.063-1.048,0.095-1.731,0.095c-2.456,0-5.188-0.401-5.712-0.664C18.335,38.927,18.345,38.865,18.418,38.811z"/>
	<path id="XMLID_14_" fill="#FFFFFF" d="M21.915,47.544c11.411-0.01,17.536-2.039,18.716-3.316c0.418-0.452,0.463-0.88,0.427-1.159
		c-0.088-0.688-0.714-1.108-0.785-1.154c-0.171-0.11-0.401-0.081-0.535,0.073c-0.133,0.154-0.136,0.379-0.003,0.533
		c0.072,0.093,0.114,0.248-0.097,0.458c-0.472,0.44-5.229,1.778-13.15,2.179c-1.085,0.057-2.223,0.085-3.382,0.085
		c-7.092,0-12.282-0.971-12.964-1.538c0.263-0.377,2.099-0.98,4.051-1.321c0.22-0.038,0.369-0.246,0.335-0.466
		c-0.034-0.221-0.238-0.373-0.46-0.344c-0.055,0.007-0.242,0.019-0.458,0.032c-3.221,0.197-6.944,0.635-7.139,2.295
		c-0.059,0.506,0.091,0.965,0.447,1.365C7.789,46.244,10.289,47.544,21.915,47.544C21.915,47.544,21.915,47.544,21.915,47.544z"/>
	<path id="XMLID_15_" fill="#FFFFFF" d="M42.872,44.588c-0.161-0.075-0.352-0.037-0.472,0.093c-0.017,0.018-1.732,1.812-6.891,2.866
		c-1.975,0.396-5.682,0.596-11.018,0.596c-5.346,0-10.433-0.21-10.484-0.212c-0.212-0.01-0.394,0.144-0.423,0.353
		c-0.029,0.209,0.106,0.406,0.311,0.455C13.948,48.751,19.279,50,26.568,50c3.496,0,6.898-0.284,10.112-0.844
		c5.992-1.05,6.412-4.022,6.427-4.148C43.128,44.832,43.033,44.662,42.872,44.588z"/>
</g>
</svg>
