<?xml version="1.0" encoding="utf-8"?>
<!-- Generator: Adobe Illustrator 17.0.0, SVG Export Plug-In . SVG Version: 6.00 Build 0)  -->
<!DOCTYPE svg PUBLIC "-//W3C//DTD SVG 1.1//EN" "http://www.w3.org/Graphics/SVG/1.1/DTD/svg11.dtd">
<svg version="1.1" id="Layer_1" xmlns="http://www.w3.org/2000/svg" xmlns:xlink="http://www.w3.org/1999/xlink" x="0px" y="0px"
	 width="50px" height="50px" viewBox="0 0 50 50" enable-background="new 0 0 50 50" xml:space="preserve">
<g>
	<path fill="#FFFFFF" d="M0.746,41.719V41.9c0,4.44,3.579,8.02,8.02,8.02c4.44,0,8.02-3.579,8.02-8.02v-8.835L0.746,41.719
		L0.746,41.719z M49.235,41.764c-0.136-1.722-0.861-3.308-2.084-4.531v-0.046L32.743,24.456l-14.001,7.521l18.078,16.085
		c1.359,1.178,3.081,1.812,4.893,1.812c0.227,0,0.453,0,0.634-0.045c1.994-0.181,3.806-1.133,5.075-2.628
		C48.782,45.706,49.371,43.758,49.235,41.764L49.235,41.764z M16.785,9.142V8.1c0-4.44-3.625-8.019-8.02-8.019
		c-4.44,0-8.02,3.579-8.02,8.019v9.832L16.785,9.142L16.785,9.142z"/>
	<path fill="#FFFFFF" d="M0.746,21.375l37.47-20.434c1.087-0.589,2.311-0.861,3.534-0.861c0.77,0,1.54,0.136,2.311,0.363
		c3.942,1.269,6.071,5.482,4.803,9.424c-0.544,1.631-1.586,3.036-3.036,3.987V13.9l-0.453,0.272L0.746,38.275V21.375L0.746,21.375z"
		/>
</g>
</svg>
