<?xml version="1.0" encoding="utf-8"?>
<!-- Generator: Adobe Illustrator 17.0.0, SVG Export Plug-In . SVG Version: 6.00 Build 0)  -->
<!DOCTYPE svg PUBLIC "-//W3C//DTD SVG 1.1//EN" "http://www.w3.org/Graphics/SVG/1.1/DTD/svg11.dtd">
<svg version="1.1" id="Layer_1" xmlns="http://www.w3.org/2000/svg" xmlns:xlink="http://www.w3.org/1999/xlink" x="0px" y="0px"
	 width="50px" height="50px" viewBox="0 0 50 50" enable-background="new 0 0 50 50" xml:space="preserve">
<g id="XMLID_91_">
	<path id="XMLID_92_" fill="#FFFDFD" d="M45.026,40.146c-1.466-0.6-2.093-1.397-2.033-2.586c0.062-1.388-0.725-2.404-1.099-2.806
		c0.226-0.863,0.886-3.848,0.001-6.441c-0.951-2.775-3.856-7.014-6.854-11.181c-1.227-1.711-1.285-3.571-1.352-5.725
		c-0.064-2.054-0.137-4.383-1.282-6.971C31.162,1.616,28.662,0,25.55,0c-1.852,0-3.752,0.579-5.215,1.588
		c-2.995,2.067-2.599,6.574-2.337,9.556c0.036,0.408,0.07,0.794,0.089,1.123c0.174,2.921,0.016,4.46-0.192,4.928
		c-0.134,0.306-0.795,1.176-1.495,2.097c-0.723,0.953-1.544,2.033-2.216,3.039c-0.802,1.211-1.45,3.062-2.076,4.852
		c-0.458,1.31-0.891,2.547-1.312,3.286c-0.799,1.422-0.6,2.749-0.434,3.361c-0.302,0.21-0.739,0.623-1.108,1.403
		c-0.446,0.951-1.35,1.462-3.23,1.823c-0.864,0.177-1.46,0.54-1.771,1.08c-0.453,0.785-0.206,1.772,0.019,2.447
		c0.333,0.991,0.125,1.619-0.252,2.758c-0.087,0.263-0.185,0.561-0.285,0.889c-0.157,0.518-0.1,0.989,0.168,1.4
		c0.71,1.085,2.782,1.468,4.915,1.72c1.273,0.151,2.667,0.66,4.015,1.153c1.321,0.483,2.687,0.982,3.928,1.133
		c0.189,0.024,0.376,0.036,0.556,0.036c1.874,0,2.721-1.244,2.99-1.755c0.673-0.137,2.995-0.577,5.389-0.636
		c2.39-0.068,4.702,0.404,5.356,0.55c0.206,0.394,0.749,1.294,1.614,1.758C33.142,49.851,33.804,50,34.482,50c0,0,0,0,0,0
		c0.724,0,2.101-0.171,3.191-1.318c1.087-1.152,3.804-2.623,5.787-3.697c0.443-0.24,0.857-0.464,1.22-0.666
		c1.114-0.618,1.722-1.5,1.668-2.421C46.303,41.132,45.796,40.461,45.026,40.146z M20.359,39.924
		c-0.139-0.977-1.396-1.946-2.851-3.068c-1.19-0.918-2.539-1.957-2.911-2.838c-0.768-1.817-0.163-5.011,0.893-6.656
		c0.522-0.824,0.948-2.073,1.36-3.281c0.445-1.304,0.905-2.653,1.42-3.243c0.815-0.922,1.568-2.715,1.701-4.128
		c0.763,0.729,1.947,1.653,3.041,1.653c0.168,0,0.332-0.022,0.488-0.066c0.748-0.216,1.849-0.852,2.913-1.467
		c0.918-0.53,2.049-1.184,2.475-1.243c0.73,1.048,4.972,10.435,5.405,13.45c0.343,2.385-0.019,4.357-0.201,5.129
		c-0.147-0.02-0.321-0.036-0.505-0.036c-1.181,0-1.494,0.645-1.576,1.03c-0.21,1-0.232,4.2-0.234,4.919
		c-0.427,0.543-2.588,3.099-5.69,3.558c-1.263,0.184-2.443,0.277-3.507,0.277c-0.909,0-1.489-0.07-1.73-0.107l-1.559-1.783
		C19.907,41.72,20.521,41.079,20.359,39.924z M22.337,10.516c-0.049,0.021-0.097,0.043-0.144,0.067
		c-0.005-0.106-0.016-0.213-0.033-0.32c-0.17-0.98-0.82-1.691-1.544-1.691c-0.054,0-0.108,0.004-0.167,0.013
		c-0.431,0.072-0.769,0.396-0.954,0.855c0.162-1.007,0.733-1.753,1.41-1.753c0.795,0,1.467,1.071,1.467,2.34
		C22.372,10.187,22.361,10.346,22.337,10.516z M28.515,11.272c0.073-0.232,0.112-0.483,0.112-0.743c0-1.15-0.73-2.051-1.661-2.051
		c-0.91,0-1.651,0.92-1.651,2.051c0,0.077,0.004,0.154,0.011,0.231c-0.048-0.019-0.095-0.037-0.141-0.054
		c-0.105-0.317-0.158-0.648-0.158-0.986c0-1.375,0.879-2.494,1.959-2.494c1.08,0,1.959,1.119,1.959,2.494
		C28.946,10.292,28.788,10.838,28.515,11.272z M27.718,13.948c-0.016,0.07-0.049,0.1-0.415,0.291
		c-0.185,0.096-0.415,0.216-0.703,0.391l-0.192,0.117c-0.773,0.469-2.584,1.567-3.076,1.631c-0.334,0.045-0.54-0.085-1.005-0.4
		c-0.105-0.071-0.216-0.147-0.335-0.223c-0.837-0.549-1.376-1.154-1.437-1.391c0.273-0.211,0.95-0.739,1.296-1.052
		c0.703-0.654,1.411-1.093,1.761-1.093c0.019,0,0.035,0.001,0.053,0.005c0.411,0.073,1.426,0.478,2.168,0.773
		c0.343,0.137,0.639,0.255,0.847,0.33C27.335,13.552,27.677,13.84,27.718,13.948z M33.611,44.5c0.37-1.669,0.796-3.94,0.727-5.278
		c-0.016-0.304-0.043-0.635-0.069-0.955c-0.049-0.598-0.121-1.488-0.046-1.751c0.015-0.007,0.031-0.013,0.049-0.018
		c0.003,0.765,0.169,2.292,1.39,2.824c0.364,0.159,0.78,0.239,1.236,0.239c1.223,0,2.58-0.6,3.135-1.156
		c0.327-0.327,0.602-0.728,0.795-1.045c0.042,0.123,0.068,0.285,0.054,0.493c-0.073,1.129,0.476,2.626,1.52,3.178l0.152,0.08
		c0.372,0.195,1.359,0.714,1.375,0.96c0,0-0.008,0.029-0.063,0.08c-0.247,0.226-1.118,0.671-1.96,1.101
		c-1.494,0.763-3.187,1.627-3.947,2.427c-1.07,1.127-2.281,1.883-3.012,1.883c-0.088,0-0.168-0.011-0.24-0.034
		C33.914,47.28,33.26,46.134,33.611,44.5z M6.544,40.242c-0.081-0.379-0.145-0.678-0.076-0.968c0.05-0.215,1.11-0.445,1.563-0.543
		c0.637-0.138,1.295-0.281,1.725-0.542c0.582-0.353,0.897-1.003,1.175-1.577c0.201-0.415,0.409-0.844,0.657-0.985
		c0.014-0.008,0.035-0.018,0.076-0.018c0.463,0,1.436,0.974,1.996,1.846c0.142,0.22,0.405,0.66,0.71,1.17
		c0.911,1.524,2.158,3.612,2.81,4.312c0.587,0.629,1.537,1.838,1.304,2.876c-0.171,0.805-1.082,1.459-1.297,1.604
		c-0.078,0.018-0.175,0.027-0.288,0.027c-1.247,0-3.715-1.037-5.041-1.595l-0.196-0.082c-0.74-0.31-1.949-0.506-3.118-0.695
		c-0.93-0.151-2.204-0.357-2.415-0.543c-0.171-0.192,0.027-0.816,0.202-1.367c0.126-0.396,0.256-0.805,0.328-1.233
		C6.758,41.246,6.639,40.689,6.544,40.242z"/>
</g>
</svg>
