<?xml version="1.0" encoding="utf-8"?>
<!-- Generator: Adobe Illustrator 17.0.0, SVG Export Plug-In . SVG Version: 6.00 Build 0)  -->
<!DOCTYPE svg PUBLIC "-//W3C//DTD SVG 1.1//EN" "http://www.w3.org/Graphics/SVG/1.1/DTD/svg11.dtd">
<svg version="1.1" id="Layer_1" xmlns="http://www.w3.org/2000/svg" xmlns:xlink="http://www.w3.org/1999/xlink" x="0px" y="0px"
	 width="50px" height="50px" viewBox="0 0 50 50" enable-background="new 0 0 50 50" xml:space="preserve">
<g>
	<path fill="#7FABDA" stroke="#7383BF" stroke-width="1.9478" stroke-linecap="round" stroke-miterlimit="10" d="M41.333,21.695
		c-0.093-7.06-5.838-12.985-12.92-12.985c-4.512,0-8.748,2.439-11.087,5.954c-1.027-0.684-2.262-1.084-3.59-1.084
		c-3.586,0-6.493,2.907-6.493,6.493c0,0.124,0.011,0.245,0.019,0.368c-0.008,0.148-0.019,0.297-0.019,0.443
		c-3.237,1.552-5.681,5.24-5.681,9.053c0,5.287,4.326,9.613,9.613,9.613h19.889c0.112,0,0.221-0.013,0.331-0.017
		c0.111,0.004,0.22,0.017,0.331,0.017h7.956c4.923,0,8.951-4.028,8.951-8.95C48.635,26.24,45.475,22.475,41.333,21.695z"/>
	<path fill="#7FABDA" stroke="#7383BF" stroke-width="1.9478" stroke-linecap="round" stroke-miterlimit="10" d="M41.333,21.695
		c0,0-2.057-0.304-4.06,0"/>
	<path fill="#7FABDA" stroke="#7383BF" stroke-width="1.9478" stroke-linecap="round" stroke-miterlimit="10" d="M7.245,20.072
		c0-3.586,2.907-6.493,6.493-6.493s6.493,2.907,6.493,6.493"/>
	<g>
		
			<line fill="none" stroke="#424A60" stroke-width="0.8645" stroke-linecap="round" stroke-miterlimit="10" x1="25.934" y1="49.153" x2="25.934" y2="41.654"/>
		
			<line fill="none" stroke="#424A60" stroke-width="0.9552" stroke-linecap="round" stroke-miterlimit="10" x1="25.934" y1="41.654" x2="29.118" y2="44.838"/>
		
			<line fill="none" stroke="#424A60" stroke-width="0.9552" stroke-linecap="round" stroke-miterlimit="10" x1="22.75" y1="44.838" x2="25.934" y2="41.654"/>
	</g>
	<g>
		
			<line fill="none" stroke="#424A60" stroke-width="0.8645" stroke-linecap="round" stroke-miterlimit="10" x1="48.404" y1="46.859" x2="44.119" y2="40.706"/>
		
			<line fill="none" stroke="#424A60" stroke-width="0.9552" stroke-linecap="round" stroke-miterlimit="10" x1="44.119" y1="40.706" x2="48.552" y2="41.499"/>
		
			<line fill="none" stroke="#424A60" stroke-width="0.9552" stroke-linecap="round" stroke-miterlimit="10" x1="43.326" y1="45.138" x2="44.119" y2="40.706"/>
	</g>
	<g>
		
			<line fill="none" stroke="#424A60" stroke-width="0.8645" stroke-linecap="round" stroke-miterlimit="10" x1="1.864" y1="46.646" x2="6.394" y2="40.671"/>
		
			<line fill="none" stroke="#424A60" stroke-width="0.9552" stroke-linecap="round" stroke-miterlimit="10" x1="6.394" y1="40.671" x2="7.008" y2="45.131"/>
		
			<line fill="none" stroke="#424A60" stroke-width="0.9552" stroke-linecap="round" stroke-miterlimit="10" x1="1.933" y1="41.285" x2="6.394" y2="40.671"/>
	</g>
	<g>
		
			<line fill="none" stroke="#424A60" stroke-width="0.8645" stroke-linecap="round" stroke-miterlimit="10" x1="48.453" y1="11.908" x2="44.232" y2="18.105"/>
		
			<line fill="none" stroke="#424A60" stroke-width="0.9552" stroke-linecap="round" stroke-miterlimit="10" x1="44.232" y1="18.105" x2="43.393" y2="13.681"/>
		
			<line fill="none" stroke="#424A60" stroke-width="0.9552" stroke-linecap="round" stroke-miterlimit="10" x1="48.656" y1="17.266" x2="44.232" y2="18.105"/>
	</g>
	<g>
		
			<line fill="none" stroke="#424A60" stroke-width="0.8645" stroke-linecap="round" stroke-miterlimit="10" x1="1.609" y1="9.887" x2="5.757" y2="16.133"/>
		
			<line fill="none" stroke="#424A60" stroke-width="0.9552" stroke-linecap="round" stroke-miterlimit="10" x1="5.757" y1="16.133" x2="1.344" y2="15.242"/>
		
			<line fill="none" stroke="#424A60" stroke-width="0.9552" stroke-linecap="round" stroke-miterlimit="10" x1="6.649" y1="11.72" x2="5.757" y2="16.133"/>
	</g>
	
		<line fill="none" stroke="#424A60" stroke-width="0.7789" stroke-linecap="round" stroke-miterlimit="10" x1="25.039" y1="0.847" x2="25.134" y2="6.934"/>
	
		<line fill="none" stroke="#424A60" stroke-width="0.7419" stroke-linecap="round" stroke-miterlimit="10" x1="25.134" y1="6.934" x2="22.623" y2="4.5"/>
	
		<line fill="none" stroke="#424A60" stroke-width="0.7536" stroke-linecap="round" stroke-miterlimit="10" x1="27.607" y1="4.382" x2="25.134" y2="6.934"/>
</g>
</svg>
