<?xml version="1.0" encoding="utf-8"?>
<!-- Generator: Adobe Illustrator 17.0.0, SVG Export Plug-In . SVG Version: 6.00 Build 0)  -->
<!DOCTYPE svg PUBLIC "-//W3C//DTD SVG 1.1//EN" "http://www.w3.org/Graphics/SVG/1.1/DTD/svg11.dtd">
<svg version="1.1" id="Layer_1" xmlns="http://www.w3.org/2000/svg" xmlns:xlink="http://www.w3.org/1999/xlink" x="0px" y="0px"
	 width="50px" height="50px" viewBox="0 0 50 50" enable-background="new 0 0 50 50" xml:space="preserve">
<path fill="#FFFFFF" d="M24.478,1c-9.077,0-10.957,4.688-10.957,7.402v5.12h10.435v1.043H8.402C4.958,14.565,1,17.28,1,25
	s3.958,10.435,7.402,10.435h6.163v-6.261c0-2.295,1.879-4.174,4.174-4.174h12.522c1.773,0,3.13-1.357,3.13-3.13V8.402
	C34.391,4.75,30.947,1,24.478,1z M19.783,6.217c1.149,0,2.087,0.938,2.087,2.087s-0.938,2.087-2.087,2.087
	c-1.149,0-2.087-0.937-2.087-2.087S18.633,6.217,19.783,6.217z M35.435,14.565v7.304c0,2.295-1.879,4.174-4.174,4.174H18.739
	c-1.773,0-3.13,1.357-3.13,3.13v12.424c0,3.652,3.444,7.402,9.913,7.402c9.077,0,10.957-4.688,10.957-7.402v-5.12H26.043v-1.043
	h15.554C45.042,35.435,49,32.72,49,25s-3.958-10.435-7.402-10.435H35.435z M30.217,39.609c1.149,0,2.087,0.938,2.087,2.087
	s-0.938,2.087-2.087,2.087c-1.149,0-2.087-0.938-2.087-2.087S29.068,39.609,30.217,39.609z"/>
</svg>
