<?xml version="1.0" encoding="utf-8"?>
<!-- Generator: Adobe Illustrator 17.0.0, SVG Export Plug-In . SVG Version: 6.00 Build 0)  -->
<!DOCTYPE svg PUBLIC "-//W3C//DTD SVG 1.1//EN" "http://www.w3.org/Graphics/SVG/1.1/DTD/svg11.dtd">
<svg version="1.1" id="Layer_1" xmlns="http://www.w3.org/2000/svg" xmlns:xlink="http://www.w3.org/1999/xlink" x="0px" y="0px"
	 width="50px" height="50px" viewBox="0 0 50 50" enable-background="new 0 0 50 50" xml:space="preserve">
<g>
	<path fill="#FFFFFF" d="M40.412,36.13c-0.121-0.814-0.282-1.652-0.48-2.509c-0.175-0.753-0.379-1.52-0.61-2.299
		c-0.608-2.046-1.409-4.172-2.381-6.321c-0.425-0.94-0.884-1.883-1.372-2.826c-0.431-0.831-0.885-1.663-1.363-2.489
		c-0.477-0.828-0.969-1.636-1.475-2.425c-0.571-0.894-1.159-1.762-1.761-2.6c-1.375-1.916-2.815-3.674-4.284-5.224
		c-0.558-0.59-1.121-1.15-1.686-1.676c-0.643-0.602-1.289-1.16-1.934-1.672C18.855,2.744,15.086,1.74,12.45,3.261
		C9.814,4.784,8.798,8.55,9.588,13.87c0.12,0.814,0.282,1.652,0.481,2.509c0.173,0.753,0.377,1.52,0.609,2.299
		c0.608,2.046,1.409,4.173,2.382,6.321c0.424,0.94,0.883,1.882,1.371,2.825c0.431,0.832,0.886,1.663,1.363,2.49
		s0.969,1.636,1.475,2.425c0.572,0.895,1.16,1.763,1.761,2.601c1.375,1.916,2.815,3.673,4.284,5.222
		c0.559,0.59,1.122,1.151,1.687,1.677c0.643,0.602,1.289,1.159,1.933,1.671c1.549,1.23,3.037,2.143,4.432,2.729
		c3.306-0.836,6.359-2.31,9.021-4.282C40.758,40.647,40.771,38.55,40.412,36.13z M38.041,41.975
		c-0.307,1.328-0.872,2.238-1.68,2.704c-0.807,0.467-1.877,0.5-3.181,0.103c-1.413-0.432-3.061-1.376-4.77-2.732
		c-0.574-0.456-1.15-0.952-1.725-1.485c-0.564-0.524-1.128-1.083-1.687-1.675c-0.961-1.017-1.911-2.129-2.838-3.323
		c-0.619-0.797-1.228-1.63-1.822-2.495c-0.863-1.253-1.695-2.573-2.487-3.945C17.06,27.754,16.333,26.373,15.68,25
		c-0.452-0.947-0.869-1.891-1.249-2.825c-0.571-1.4-1.06-2.78-1.46-4.119c-0.232-0.781-0.436-1.548-0.606-2.298
		c-0.175-0.764-0.318-1.512-0.425-2.237c-0.321-2.157-0.314-4.057,0.019-5.496c0.307-1.328,0.873-2.238,1.68-2.704
		c0.436-0.251,0.948-0.378,1.532-0.378c0.498,0,1.049,0.092,1.649,0.276c1.413,0.431,3.061,1.376,4.77,2.731
		c0.574,0.456,1.151,0.952,1.725,1.487c0.565,0.523,1.128,1.082,1.686,1.673c0.962,1.017,1.912,2.129,2.84,3.324
		c0.619,0.797,1.228,1.63,1.822,2.495c0.861,1.253,1.694,2.573,2.486,3.944c0.793,1.372,1.519,2.753,2.173,4.127
		c0.452,0.948,0.869,1.892,1.249,2.826c0.571,1.4,1.06,2.779,1.46,4.118c0.232,0.781,0.436,1.548,0.607,2.298
		c0.174,0.764,0.317,1.512,0.424,2.237C38.381,38.636,38.374,40.536,38.041,41.975z"/>
	<path fill="#FFFFFF" d="M42.345,17.218c-0.765-0.302-1.572-0.582-2.414-0.839c-0.739-0.225-1.505-0.433-2.296-0.622
		c-2.076-0.496-4.318-0.866-6.664-1.098c-1.025-0.102-2.071-0.177-3.131-0.225c-0.935-0.043-1.883-0.065-2.839-0.065
		s-1.903,0.022-2.84,0.065c-1.061,0.047-2.107,0.124-3.132,0.225c-2.347,0.232-4.588,0.602-6.663,1.098
		c-0.791,0.189-1.557,0.397-2.296,0.622c-0.842,0.257-1.649,0.537-2.414,0.839C2.654,19.193-0.102,21.956-0.102,25
		c0,3.043,2.755,5.807,7.756,7.783c0.765,0.302,1.571,0.582,2.413,0.839c0.739,0.225,1.505,0.433,2.296,0.621
		c2.076,0.497,4.318,0.866,6.666,1.099c1.025,0.101,2.071,0.176,3.132,0.225c0.935,0.043,1.883,0.064,2.839,0.064
		s1.902-0.021,2.838-0.064c1.061-0.049,2.106-0.124,3.132-0.225c2.347-0.232,4.59-0.602,6.666-1.099
		c0.791-0.189,1.557-0.396,2.296-0.622c0.841-0.257,1.648-0.536,2.413-0.838c5.002-1.975,7.756-4.739,7.756-7.783
		C50.101,21.956,47.347,19.193,42.345,17.218z M46.222,27.806c-1.079,1.008-2.722,1.964-4.75,2.765
		c-0.683,0.269-1.401,0.52-2.15,0.751c-0.736,0.227-1.501,0.435-2.293,0.623c-1.361,0.324-2.8,0.59-4.298,0.796
		c-0.999,0.138-2.024,0.249-3.07,0.33c-1.517,0.121-3.076,0.183-4.661,0.183s-3.144-0.061-4.661-0.182
		c-1.046-0.082-2.072-0.193-3.071-0.331c-1.498-0.206-2.937-0.472-4.298-0.796c-0.792-0.188-1.557-0.396-2.293-0.623
		c-0.75-0.23-1.467-0.481-2.15-0.751c-2.028-0.801-3.671-1.757-4.75-2.765C2.781,26.876,2.276,25.932,2.276,25
		s0.506-1.876,1.502-2.806c1.079-1.008,2.722-1.964,4.75-2.765c0.683-0.269,1.401-0.52,2.15-0.751
		c0.736-0.227,1.501-0.435,2.293-0.623c1.361-0.324,2.8-0.59,4.298-0.796c0.999-0.138,2.025-0.249,3.071-0.331
		c1.517-0.12,3.076-0.182,4.661-0.182s3.144,0.061,4.661,0.183c1.046,0.081,2.071,0.192,3.07,0.33
		c1.498,0.206,2.937,0.472,4.298,0.796c0.792,0.188,1.557,0.396,2.293,0.623c0.75,0.23,1.467,0.481,2.15,0.751
		c2.028,0.801,3.671,1.757,4.75,2.765c0.997,0.93,1.502,1.874,1.502,2.806C47.724,25.932,47.218,26.876,46.222,27.806z"/>
	<path fill="#FFFFFF" d="M37.55,3.261c-2.636-1.521-6.406-0.517-10.617,2.826c-0.644,0.512-1.29,1.07-1.933,1.672
		c-0.565,0.527-1.129,1.087-1.687,1.677c-1.469,1.55-2.909,3.306-4.285,5.222c-0.601,0.838-1.189,1.706-1.76,2.6
		c-0.506,0.789-0.998,1.597-1.475,2.425c-0.477,0.828-0.932,1.658-1.363,2.49c-0.489,0.943-0.947,1.886-1.371,2.825
		c-0.972,2.149-1.774,4.275-2.382,6.321c-0.232,0.78-0.436,1.548-0.61,2.3c-0.198,0.857-0.36,1.694-0.48,2.508
		c-0.359,2.419-0.345,4.516,0.026,6.229c2.661,1.973,5.714,3.447,9.021,4.283c1.395-0.586,2.883-1.499,4.432-2.729
		c0.645-0.512,1.291-1.07,1.934-1.671c0.565-0.527,1.128-1.086,1.686-1.676c1.467-1.55,2.909-3.307,4.284-5.224
		c0.601-0.838,1.189-1.706,1.761-2.601c0.506-0.789,0.998-1.597,1.475-2.425c0.478-0.827,0.932-1.657,1.363-2.489
		c0.489-0.943,0.947-1.886,1.372-2.826c0.971-2.148,1.773-4.275,2.381-6.321c0.231-0.779,0.435-1.547,0.609-2.299
		c0.2-0.857,0.36-1.695,0.481-2.509C41.202,8.55,40.187,4.784,37.55,3.261z M37.029,18.056c-0.4,1.34-0.889,2.718-1.46,4.118
		c-0.38,0.934-0.797,1.878-1.249,2.826c-0.653,1.373-1.38,2.754-2.173,4.127c-0.792,1.371-1.625,2.691-2.486,3.944
		c-0.595,0.866-1.205,1.699-1.823,2.496c-0.927,1.194-1.877,2.307-2.839,3.323c-0.558,0.591-1.121,1.151-1.686,1.674
		c-0.574,0.534-1.151,1.03-1.725,1.486c-1.708,1.357-3.357,2.3-4.77,2.732c-1.304,0.397-2.374,0.363-3.181-0.103
		c-0.807-0.466-1.372-1.376-1.68-2.704c-0.332-1.439-0.34-3.339-0.019-5.496c0.108-0.725,0.25-1.473,0.424-2.237
		c0.171-0.751,0.375-1.517,0.607-2.298c0.4-1.34,0.889-2.719,1.46-4.119c0.38-0.934,0.797-1.878,1.249-2.825
		c0.653-1.373,1.38-2.754,2.173-4.127c0.792-1.372,1.625-2.692,2.487-3.945c0.594-0.865,1.202-1.698,1.821-2.493
		c0.928-1.195,1.878-2.308,2.839-3.324c0.56-0.592,1.123-1.152,1.687-1.674c0.575-0.534,1.151-1.03,1.725-1.486
		c1.708-1.355,3.357-2.3,4.77-2.731c0.6-0.184,1.151-0.276,1.649-0.276c0.584,0,1.097,0.127,1.532,0.378
		c0.808,0.466,1.372,1.376,1.68,2.704c0.332,1.439,0.34,3.339,0.019,5.496c-0.108,0.725-0.25,1.473-0.425,2.237
		C37.465,16.508,37.261,17.274,37.029,18.056z"/>
	<circle fill="#FFFFFF" cx="25.001" cy="25" r="4.718"/>
	<path fill="#FFFFFF" d="M40.353,36.212c-0.117-0.814-0.274-1.654-0.467-2.513c-0.171-0.753-0.37-1.522-0.598-2.303
		c-0.597-2.049-1.387-4.179-2.348-6.333c-0.419-0.941-0.872-1.887-1.356-2.831c-0.426-0.834-0.876-1.668-1.35-2.498
		c-0.473-0.83-0.962-1.642-1.464-2.434c-0.567-0.898-1.151-1.769-1.747-2.609c-1.364-1.923-2.796-3.687-4.255-5.244
		c-0.556-0.593-1.116-1.156-1.678-1.687c-0.64-0.605-1.284-1.166-1.925-1.681c-4.192-3.366-7.958-4.39-10.602-2.882
		C9.92,4.703,8.884,8.466,9.646,13.789c0.117,0.814,0.273,1.653,0.467,2.512c0.171,0.753,0.37,1.522,0.598,2.302
		c0.596,2.049,1.387,4.179,2.348,6.334c0.42,0.941,0.873,1.887,1.356,2.832c0.426,0.834,0.877,1.668,1.351,2.498
		c0.473,0.83,0.961,1.642,1.462,2.433c0.568,0.898,1.151,1.768,1.747,2.609c1.364,1.923,2.797,3.689,4.257,5.246
		c0.556,0.593,1.115,1.156,1.678,1.687c0.64,0.604,1.282,1.166,1.924,1.681c4.194,3.366,7.959,4.389,10.603,2.882
		C40.08,45.296,41.116,41.534,40.353,36.212z M33.077,44.824c-1.41-0.438-3.054-1.391-4.755-2.756
		c-0.572-0.46-1.146-0.959-1.717-1.496c-0.562-0.527-1.122-1.088-1.677-1.683c-0.956-1.021-1.9-2.14-2.821-3.339
		c-0.615-0.799-1.219-1.635-1.808-2.503c-0.857-1.258-1.683-2.582-2.468-3.958c-0.785-1.376-1.504-2.761-2.151-4.139
		c-0.447-0.95-0.859-1.896-1.234-2.832c-0.563-1.403-1.045-2.785-1.438-4.128c-0.229-0.781-0.428-1.549-0.595-2.3
		c-0.171-0.765-0.309-1.513-0.413-2.24c-0.309-2.159-0.293-4.059,0.049-5.495c0.314-1.326,0.883-2.233,1.693-2.695
		c0.81-0.462,1.88-0.49,3.182-0.085c1.41,0.438,3.054,1.391,4.755,2.756c0.572,0.46,1.146,0.959,1.717,1.496
		c0.562,0.527,1.122,1.088,1.677,1.683c0.956,1.021,1.9,2.14,2.821,3.339c0.615,0.799,1.22,1.635,1.809,2.503
		c0.856,1.258,1.682,2.582,2.467,3.959c0.785,1.376,1.504,2.761,2.15,4.139c0.448,0.949,0.859,1.894,1.234,2.83
		c0.563,1.403,1.045,2.785,1.438,4.128c0.229,0.781,0.428,1.549,0.595,2.3c0.171,0.765,0.309,1.513,0.413,2.24
		c0.309,2.159,0.293,4.059-0.049,5.495c-0.314,1.326-0.883,2.233-1.693,2.695C35.449,45.201,34.378,45.229,33.077,44.824z"/>
	<path fill="#FFFFFF" d="M23.013,43.907c0.646-0.51,1.293-1.067,1.939-1.666c0.566-0.526,1.131-1.084,1.691-1.673
		c1.472-1.545,2.918-3.298,4.298-5.211c0.604-0.835,1.194-1.702,1.768-2.594c0.507-0.787,1.003-1.595,1.483-2.422
		c0.48-0.826,0.937-1.657,1.37-2.488c0.492-0.941,0.952-1.884,1.379-2.821c0.978-2.146,1.785-4.269,2.399-6.313
		c0.234-0.779,0.439-1.546,0.616-2.298c0.201-0.857,0.364-1.696,0.487-2.509c0.806-5.316-0.2-9.086-2.831-10.616
		s-6.406-0.535-10.626,2.796c-0.646,0.51-1.292,1.066-1.938,1.665c-0.566,0.526-1.131,1.084-1.69,1.673
		c-1.473,1.545-2.918,3.298-4.299,5.211c-0.603,0.835-1.193,1.702-1.768,2.595c-0.507,0.787-1.002,1.596-1.482,2.422
		c-0.48,0.826-0.938,1.655-1.37,2.486c-0.491,0.942-0.951,1.883-1.379,2.821c-0.978,2.146-1.786,4.271-2.399,6.315
		c-0.234,0.779-0.44,1.545-0.616,2.298c-0.201,0.856-0.364,1.694-0.488,2.508c-0.805,5.317,0.201,9.087,2.832,10.616
		C15.02,48.232,18.793,47.24,23.013,43.907z M11.912,41.939c-0.33-1.439-0.33-3.34-0.004-5.496c0.11-0.726,0.254-1.473,0.431-2.236
		c0.173-0.75,0.378-1.516,0.613-2.295c0.403-1.339,0.896-2.717,1.471-4.116c0.382-0.933,0.801-1.875,1.257-2.82
		c0.657-1.373,1.388-2.752,2.184-4.122c0.796-1.37,1.632-2.687,2.499-3.939c0.597-0.863,1.208-1.695,1.83-2.489
		c0.931-1.192,1.884-2.302,2.848-3.316c0.56-0.59,1.125-1.147,1.691-1.67c0.576-0.532,1.153-1.027,1.729-1.482
		c1.712-1.351,3.363-2.291,4.777-2.717c1.305-0.394,2.375-0.357,3.181,0.111s1.368,1.38,1.671,2.709
		c0.33,1.439,0.33,3.34,0.004,5.496c-0.11,0.726-0.254,1.473-0.431,2.236c-0.173,0.75-0.378,1.516-0.613,2.295
		c-0.403,1.339-0.896,2.717-1.471,4.116c-0.382,0.933-0.802,1.876-1.256,2.822c-0.658,1.372-1.389,2.751-2.185,4.121
		s-1.632,2.687-2.5,3.938c-0.596,0.864-1.207,1.694-1.828,2.488c-0.931,1.192-1.884,2.302-2.848,3.316
		c-0.56,0.59-1.125,1.147-1.691,1.67c-0.576,0.532-1.153,1.027-1.729,1.482c-1.712,1.351-3.363,2.291-4.777,2.717
		c-1.305,0.394-2.375,0.357-3.181-0.111C12.777,44.179,12.215,43.268,11.912,41.939z"/>
</g>
</svg>
