<?xml version="1.0" encoding="utf-8"?>
<!-- Generator: Adobe Illustrator 17.0.0, SVG Export Plug-In . SVG Version: 6.00 Build 0)  -->
<!DOCTYPE svg PUBLIC "-//W3C//DTD SVG 1.1//EN" "http://www.w3.org/Graphics/SVG/1.1/DTD/svg11.dtd">
<svg version="1.1" id="Layer_1" xmlns="http://www.w3.org/2000/svg" xmlns:xlink="http://www.w3.org/1999/xlink" x="0px" y="0px"
	 width="100px" height="100px" viewBox="0 0 100 100" style="enable-background:new 0 0 100 100;" xml:space="preserve">
<g>
	<g>
		<path style="fill:#FFFFFF;" d="M71.046,53.893H57.458c-3.719,0-6.743,3.024-6.743,6.743v10.421c0,3.719,3.024,6.743,6.743,6.743
			h13.588c3.719,0,6.743-3.024,6.743-6.743V60.635C77.789,56.917,74.765,53.893,71.046,53.893z M72.885,71.056
			c0,1.022-0.838,1.839-1.839,1.839H57.458c-1.022,0-1.839-0.838-1.839-1.839V60.635c0-1.022,0.838-1.839,1.839-1.839h13.588
			c1.022,0,1.839,0.838,1.839,1.839V71.056z"/>
		<path style="fill:#FFFFFF;" d="M100,34.951c0-0.429-0.102-0.838-0.327-1.206L84.798,7.591c-0.429-0.756-1.246-1.246-2.125-1.246
			H17.307c-0.879,0-1.696,0.47-2.125,1.246L0.327,33.745C0.123,34.113,0,34.522,0,34.951c0,5.864,3.535,10.891,8.582,13.118v43.134
			c0,1.349,1.103,2.452,2.452,2.452h13.547c0.02,0,0.041,0,0.061,0h19.003c0.02,0,0.041,0,0.061,0h45.239
			c1.349,0,2.452-1.103,2.452-2.452V48.376c0-0.102,0-0.184-0.02-0.266C96.445,45.883,100,40.836,100,34.951z M18.737,11.269h62.505
			l11.626,20.454H7.131L18.737,11.269z M71.169,36.606c-0.776,4.414-4.638,7.765-9.277,7.765c-4.638,0-8.5-3.351-9.277-7.765H71.169
			z M47.405,36.606c-0.776,4.414-4.638,7.765-9.277,7.765s-8.5-3.351-9.297-7.765H47.405z M5.067,36.606h18.574
			c-0.776,4.414-4.659,7.765-9.297,7.765C9.706,44.391,5.844,41.02,5.067,36.606z M41.193,88.752H27.094V62.291
			c0-1.921,1.553-3.494,3.494-3.494h7.131c1.921,0,3.494,1.553,3.494,3.494v26.461H41.193z M86.494,88.752H46.097V62.291
			c0-4.618-3.76-8.398-8.398-8.398h-7.131c-4.618,0-8.398,3.76-8.398,8.398v26.481h-8.684V49.275c0.286,0.02,0.572,0.02,0.858,0.02
			c4.945,0,9.318-2.513,11.892-6.334c2.575,3.821,6.947,6.334,11.892,6.334s9.297-2.513,11.892-6.334
			c2.575,3.821,6.947,6.334,11.872,6.334c4.945,0,9.297-2.513,11.872-6.334c2.575,3.821,6.947,6.334,11.892,6.334
			c0.286,0,0.552-0.02,0.838-0.02L86.494,88.752L86.494,88.752z M85.656,44.391c-4.638,0-8.5-3.351-9.277-7.765h18.574
			C94.156,41.02,90.294,44.391,85.656,44.391z"/>
	</g>
</g>
</svg>
