<?xml version="1.0" encoding="utf-8"?>
<!-- Generator: Adobe Illustrator 17.0.0, SVG Export Plug-In . SVG Version: 6.00 Build 0)  -->
<!DOCTYPE svg PUBLIC "-//W3C//DTD SVG 1.1//EN" "http://www.w3.org/Graphics/SVG/1.1/DTD/svg11.dtd">
<svg version="1.1" id="Layer_1" xmlns="http://www.w3.org/2000/svg" xmlns:xlink="http://www.w3.org/1999/xlink" x="0px" y="0px"
	 width="100px" height="100px" viewBox="0 0 100 100" enable-background="new 0 0 100 100" xml:space="preserve">
<g>
	<g>
		<g>
			<path fill="#FFFFFF" d="M60.389,39.69h-2.13c-0.81,0-1.466,0.656-1.466,1.466v7.796c0,0.809,0.656,1.466,1.466,1.466h2.13
				c5.932,0,6.572-3.78,6.572-5.405C66.961,43.412,66.321,39.69,60.389,39.69z M59.726,47.486v-4.864
				c2.285,0,4.304,0.118,4.304,2.391C64.03,47.344,62.067,47.486,59.726,47.486z"/>
		</g>
	</g>
	<g>
		<g>
			<path fill="#FFFFFF" d="M41.894,53.563l-3.004-9.704c-0.427-1.377-2.426-1.369-2.857-0.01l-3.069,9.674
				c-0.235,0.74,0.148,1.534,0.873,1.812c2.213,0.847,4.904,0.862,7.158,0.039C41.73,55.106,42.125,54.31,41.894,53.563z
				 M36.222,52.951l1.221-3.851l1.195,3.861C37.846,53.081,37.004,53.078,36.222,52.951z"/>
		</g>
	</g>
	<g>
		<g>
			<path fill="#FFFFFF" d="M97.651,24.229H43.387c-0.81,0-1.466,0.656-1.466,1.466c0,0.81,0.656,1.466,1.466,1.466h52.85
				L74.362,49.034c1.029-3.454,0.892-9.536-3.385-12.82c-2.497-1.917-6.146-2.849-11.155-2.849l-9.679-0.002h0
				c-0.809,0-1.466,0.656-1.466,1.466v14.753l-5.606-15.259c-0.212-0.577-0.762-0.96-1.376-0.96h-8.381
				c-0.611,0-1.158,0.379-1.372,0.951L26.01,50.119c-3.567-4.822-11.394-5.035-13.456-7.277c0.24-0.212,1.032-0.616,2.779-0.524
				c1.643,0.084,3.194,0.163,6.504,1.763c0.692,0.334,1.525,0.078,1.909-0.589c3.634-6.315,3.744-6.202,3.504-7.007
				c-0.115-0.385-0.383-0.707-0.742-0.889c-7.489-3.798-19.022-4.318-23.576,2.748V27.161h33.615c0.81,0,1.466-0.656,1.466-1.466
				c0-0.81-0.656-1.466-1.466-1.466h-34.2C1.052,24.229,0,25.281,0,26.575v47.73c0,0.81,0.656,1.466,1.466,1.466h35.08
				c0.81,0,1.466-0.656,1.466-1.466c0-0.81-0.656-1.466-1.466-1.466H2.932v-8.656c5.262,2.739,12.473,3.743,17.776,1.324
				c0.242,0.518,0.76,0.846,1.329,0.846h8.785c0.633,0,1.195-0.406,1.392-1.008l1.033-3.139c2.602,0.62,5.51,0.667,8.289,0.027
				l0.996,3.102c0.195,0.606,0.759,1.018,1.396,1.018h13.112l-6.486,6.486h-7.168c-0.81,0-1.466,0.656-1.466,1.466
				c0,0.81,0.656,1.466,1.466,1.466h7.411c0.618,0,1.222-0.251,1.659-0.687l46.854-46.85
				C100.785,26.759,99.739,24.229,97.651,24.229z M4.551,55.896l-1.619,3.212V48.991c2.033,2.99,5.931,4.587,9.409,5.661
				c1.084,0.337,3.624,1.127,3.815,1.673c-0.016,0.9-1.417,1.032-2.311,1.053c-2.394,0.041-4.167-0.269-7.24-2.084
				C5.875,54.862,4.932,55.139,4.551,55.896z M59.726,63.669v-6.598c2.032,0,4.582,0.1,7.491-0.892L59.726,63.669z M61.38,54.139
				H58.26c-0.81,0-1.466,0.656-1.466,1.466v7.817H44.998l-1.099-3.42c-0.247-0.77-1.073-1.194-1.842-0.948
				c-3.075,0.984-6.456,0.912-9.302-0.031c-0.769-0.255-1.6,0.163-1.854,0.933l-1.14,3.466H24.15l0.225-0.603
				c0.234-0.626,0.015-1.332-0.533-1.715c-2.06-1.44-2.046,2.751-10.013,2.833c-3.099,0-6.184-0.716-9.001-2.08l1.654-3.282
				c2.89,1.486,4.972,1.775,7.423,1.733c3.786-0.091,5.147-2.069,5.181-3.932c0.103-5.959-14.918-3.273-14.75-12.865
				c0.106-7.03,9.686-9.896,19.433-5.941l-1.899,3.301c-5.905-2.545-12.247-1.847-12.315,1.959
				c-0.028,1.899,1.992,3.439,6.364,4.852c4.428,1.403,8.141,2.868,8.73,6.603c0.234,1.484,2.294,1.688,2.82,0.287l6.859-18.278
				h6.342l8.095,22.034c0.561,1.526,2.842,1.126,2.842-0.505V36.294c11.164,0.002,20.339-1.081,20.339,9.014
				C71.948,50.92,68.096,54.139,61.38,54.139z"/>
		</g>
	</g>
</g>
</svg>
