<?xml version="1.0" encoding="utf-8"?>
<!-- Generator: Adobe Illustrator 17.0.0, SVG Export Plug-In . SVG Version: 6.00 Build 0)  -->
<!DOCTYPE svg PUBLIC "-//W3C//DTD SVG 1.1//EN" "http://www.w3.org/Graphics/SVG/1.1/DTD/svg11.dtd">
<svg version="1.1" id="Layer_1" xmlns="http://www.w3.org/2000/svg" xmlns:xlink="http://www.w3.org/1999/xlink" x="0px" y="0px"
	 width="50px" height="50px" viewBox="0 0 50 50" enable-background="new 0 0 50 50" xml:space="preserve">
<g>
	<path fill="#7FABDA" stroke="#7383BF" stroke-width="1.9443" stroke-linecap="round" stroke-miterlimit="10" d="M41.205,22.392
		C41.112,15.345,35.378,9.43,28.309,9.43c-4.504,0-8.733,2.434-11.067,5.943c-1.026-0.683-2.258-1.082-3.583-1.082
		c-3.579,0-6.481,2.902-6.481,6.481c0,0.124,0.011,0.245,0.019,0.368c-0.008,0.147-0.019,0.297-0.019,0.442
		c-3.231,1.549-5.671,5.231-5.671,9.037c0,5.278,4.318,9.596,9.596,9.596h19.854c0.112,0,0.22-0.013,0.331-0.017
		c0.111,0.004,0.22,0.017,0.331,0.017h7.942c4.914,0,8.935-4.021,8.935-8.934C48.494,26.93,45.34,23.171,41.205,22.392z"/>
	<path fill="#7FABDA" stroke="#7383BF" stroke-width="1.9443" stroke-linecap="round" stroke-miterlimit="10" d="M41.205,22.392
		c0,0-2.054-0.304-4.053,0"/>
	<path fill="#7FABDA" stroke="#7383BF" stroke-width="1.9443" stroke-linecap="round" stroke-miterlimit="10" d="M7.177,20.772
		c0-3.579,2.902-6.481,6.481-6.481s6.481,2.902,6.481,6.481"/>
</g>
<g>
	<g>
		<path fill="#424A60" d="M30.779,31.841h-0.93v-1.24c0-2.392-1.946-4.338-4.338-4.338s-4.338,1.946-4.338,4.338v1.24h-0.93
			c-0.171,0-0.31,0.139-0.31,0.31v7.747c0,0.684,0.556,1.239,1.24,1.239h8.677c0.684,0,1.239-0.556,1.239-1.24v-7.747
			C31.089,31.979,30.95,31.841,30.779,31.841z M26.439,38.314c0.01,0.087-0.018,0.175-0.077,0.241
			c-0.059,0.066-0.143,0.103-0.231,0.103h-1.24c-0.088,0-0.172-0.038-0.231-0.103s-0.087-0.153-0.077-0.241l0.195-1.758
			c-0.317-0.231-0.507-0.596-0.507-0.997c0-0.684,0.556-1.24,1.24-1.24s1.24,0.556,1.24,1.24c0,0.401-0.19,0.766-0.507,0.997
			L26.439,38.314z M27.99,31.841h-4.958v-1.24c0-1.367,1.112-2.479,2.479-2.479s2.479,1.112,2.479,2.479V31.841z"/>
	</g>
</g>
</svg>
