<?xml version="1.0" encoding="utf-8"?>
<!-- Generator: Adobe Illustrator 17.0.0, SVG Export Plug-In . SVG Version: 6.00 Build 0)  -->
<!DOCTYPE svg PUBLIC "-//W3C//DTD SVG 1.1//EN" "http://www.w3.org/Graphics/SVG/1.1/DTD/svg11.dtd">
<svg version="1.1" id="Layer_1" xmlns="http://www.w3.org/2000/svg" xmlns:xlink="http://www.w3.org/1999/xlink" x="0px" y="0px"
	 width="100px" height="100px" viewBox="0 0 100 100" enable-background="new 0 0 100 100" xml:space="preserve">
<g>
	<path fill="#FFFFFF" d="M91.009,47.216c-1.289-1.189-3.042-1.923-4.81-2.015c-2.008-0.104-3.889,0.612-5.29,2.014l-9.572,9.472
		c-0.189-0.328-0.405-0.637-0.648-0.924c-1.178-1.398-2.9-2.168-4.848-2.168h-13.4c-2.527,0-4.992-0.328-7.326-0.973
		c-6.086-1.683-11.9-0.454-16.815,3.558c-1.999,1.631-3.457,3.406-4.379,4.7l-2.403-2.332c-0.316-0.307-0.744-0.481-1.185-0.481
		c-0.004,0-0.007,0-0.011,0c-0.456,0.003-0.898,0.193-1.214,0.521L7.43,70.713c-0.313,0.324-0.483,0.761-0.473,1.211
		c0.01,0.451,0.198,0.879,0.525,1.19l19.754,18.81c0.328,0.312,0.748,0.468,1.168,0.468c0.441,0,0.881-0.171,1.213-0.512
		l11.571-11.871c0.316-0.324,0.491-0.768,0.483-1.221c-0.009-0.447-0.196-0.877-0.516-1.189l-1.008-0.977l2.306-0.259
		c1.395-0.162,2.814-0.244,4.218-0.244h20.387c3.313,0,6.127-0.724,8.364-2.154c0.018-0.012,0.037-0.024,0.055-0.037
		c0.801-0.557,1.528-1.217,2.16-1.961l13.739-16.163C93.727,53.038,93.58,49.587,91.009,47.216z M28.36,88.318L11.051,71.836
		l9.324-9.68l17.208,16.699L28.36,88.318z M88.795,53.61L75.056,69.774c-0.436,0.513-0.936,0.969-1.487,1.355
		c-1.679,1.063-3.87,1.603-6.511,1.603H46.67c-1.534,0-3.084,0.09-4.602,0.267l-5.069,0.569l-10.614-10.3
		c0.738-1.094,2.094-2.861,4.058-4.465c4.084-3.334,8.717-4.316,13.77-2.917c2.628,0.727,5.397,1.096,8.229,1.096h13.4
		c2.406,0,3.049,2.085,3.049,3.316c0,0.9-0.289,1.756-0.793,2.35c-0.546,0.643-1.323,0.969-2.309,0.969H54.124
		c-0.935,0-1.693,0.759-1.693,1.694c0,0.935,0.758,1.693,1.693,1.693h11.665c1.969,0,3.706-0.768,4.89-2.163
		c0.986-1.16,1.548-2.685,1.595-4.315l11.024-10.909c1.576-1.576,4.037-1.18,5.415,0.09C89.425,50.363,90.383,51.743,88.795,53.61z"
		/>
	<path fill="#FFFFFF" d="M48.843,64.859c-0.213-0.911-1.124-1.475-2.035-1.262c-0.91,0.213-1.476,1.124-1.262,2.035l0.016,0.069
		c0.183,0.78,0.879,1.307,1.647,1.307c0.128,0,0.258-0.014,0.388-0.045c0.911-0.213,1.476-1.125,1.262-2.035L48.843,64.859z"/>
	<path fill="#FFFFFF" d="M18.403,43.338h16.501c0.898,0,1.73-0.292,2.406-0.784c0.676,0.493,1.508,0.784,2.406,0.784h16.502
		c0.898,0,1.73-0.292,2.406-0.784c0.676,0.493,1.508,0.784,2.406,0.784h16.501c2.261,0,4.1-1.84,4.1-4.1v-7.695
		c0-3.456-1.934-6.458-4.829-7.939c1.403-1.692,2.248-3.862,2.248-6.226c0-5.386-4.382-9.768-9.768-9.768s-9.768,4.382-9.768,9.768
		c0,2.364,0.845,4.535,2.248,6.226c-1.251,0.641-2.322,1.566-3.136,2.689c-0.814-1.123-1.885-2.049-3.137-2.689
		c1.403-1.691,2.248-3.862,2.248-6.226c0-5.386-4.382-9.768-9.768-9.768s-9.768,4.382-9.768,9.768c0,2.364,0.845,4.535,2.248,6.227
		c-1.252,0.64-2.323,1.566-3.137,2.689c-0.814-1.123-1.885-2.049-3.137-2.69c1.403-1.691,2.248-3.862,2.248-6.226
		c0-5.387-4.382-9.769-9.768-9.769c-5.386,0-9.768,4.382-9.768,9.769c0,2.364,0.845,4.534,2.248,6.226
		c-2.895,1.481-4.83,4.484-4.83,7.939v7.694C14.303,41.498,16.142,43.338,18.403,43.338z M69.283,10.995
		c3.518,0,6.381,2.862,6.381,6.381c0,3.518-2.863,6.381-6.381,6.381c-3.519,0-6.381-2.862-6.381-6.381
		C62.901,13.858,65.764,10.995,69.283,10.995z M64.883,26.094c1.323,0.671,2.818,1.051,4.399,1.051c1.582,0,3.076-0.38,4.399-1.051
		c2.632,0.458,4.565,2.726,4.565,5.448v7.695c0,0.393-0.32,0.713-0.713,0.713H61.032c-0.393,0-0.713-0.32-0.713-0.713v-7.695
		C60.319,28.821,62.252,26.553,64.883,26.094z M47.968,10.995c3.518,0,6.381,2.862,6.381,6.381c0,3.518-2.863,6.381-6.381,6.381
		c-3.519,0-6.381-2.862-6.381-6.381S44.449,10.995,47.968,10.995z M43.569,26.094c1.323,0.671,2.817,1.051,4.399,1.051
		c1.582,0,3.076-0.38,4.399-1.051c2.631,0.458,4.565,2.726,4.565,5.448v7.695c0,0.393-0.32,0.713-0.713,0.713H39.718
		c-0.393,0-0.713-0.32-0.713-0.713v-7.695C39.005,28.821,40.938,26.553,43.569,26.094z M26.654,10.995
		c3.518,0,6.381,2.862,6.381,6.381c0,3.518-2.863,6.381-6.381,6.381s-6.381-2.863-6.381-6.381
		C20.272,13.858,23.135,10.995,26.654,10.995z M17.69,31.543c0-2.721,1.934-4.99,4.565-5.448c1.323,0.671,2.817,1.051,4.399,1.051
		c1.582,0,3.076-0.38,4.399-1.051c2.632,0.458,4.565,2.726,4.565,5.448v7.695c0,0.393-0.32,0.713-0.713,0.713H18.403
		c-0.393,0-0.713-0.32-0.713-0.713V31.543z"/>
</g>
</svg>
