<?xml version="1.0" encoding="utf-8"?>
<!-- Generator: Adobe Illustrator 17.0.0, SVG Export Plug-In . SVG Version: 6.00 Build 0)  -->
<!DOCTYPE svg PUBLIC "-//W3C//DTD SVG 1.1//EN" "http://www.w3.org/Graphics/SVG/1.1/DTD/svg11.dtd">
<svg version="1.1" id="Layer_1" xmlns="http://www.w3.org/2000/svg" xmlns:xlink="http://www.w3.org/1999/xlink" x="0px" y="0px"
	 width="50px" height="50px" viewBox="0 0 50 50" enable-background="new 0 0 50 50" xml:space="preserve">
<g>
	<g>
		<path fill="#FFFFFF" d="M45.697,33.887c0,0,7.137-16.072-14.871-30.699c0,0,9.011,11.084,4.374,23.466
			c0,0-16.17-11.205-24.305-19.241c0,0,10.166,14.293,13.814,17.21c0,0-6.067-3.069-20.125-14.757c0,0,16.126,20.562,23.729,24.856
			c0,0-11.505,7.684-28.344-3.16c0,0,8.858,15.25,27.543,15.25c8.401,0,10.863-4.216,15.025-4.216c4.305,0,6.899,4.216,6.899,4.216
			C51.948,40.776,45.697,33.887,45.697,33.887z"/>
	</g>
</g>
</svg>
