<?xml version="1.0" encoding="utf-8"?>
<!-- Generator: Adobe Illustrator 17.0.0, SVG Export Plug-In . SVG Version: 6.00 Build 0)  -->
<!DOCTYPE svg PUBLIC "-//W3C//DTD SVG 1.1//EN" "http://www.w3.org/Graphics/SVG/1.1/DTD/svg11.dtd">
<svg version="1.1" id="Layer_1" xmlns="http://www.w3.org/2000/svg" xmlns:xlink="http://www.w3.org/1999/xlink" x="0px" y="0px"
	 width="50px" height="50px" viewBox="0 0 50 50" enable-background="new 0 0 50 50" xml:space="preserve">
<path fill="#FFFFFF" d="M50,9.747c-1.818,0.787-3.796,1.329-5.883,1.6c2.141-1.274,3.768-3.227,4.528-5.612
	c-1.98,1.166-4.203,2.007-6.534,2.467c-1.846-1.978-4.528-3.199-7.512-3.199c-5.64,0-10.251,4.528-10.251,10.086
	c0,0.814,0.137,1.573,0.3,2.306C16.106,16.988,8.541,12.975,3.496,6.846c-0.867,1.519-1.409,3.227-1.409,5.07
	c0,3.525,1.843,6.616,4.554,8.406c-1.68-0.027-3.254-0.489-4.636-1.248c0,0.054,0,0.082,0,0.135c0,1.301,0.244,2.495,0.704,3.633
	c1.249,3.173,4.096,5.559,7.54,6.236c-0.896,0.245-1.763,0.38-2.712,0.38c-0.651,0-1.301-0.081-1.926-0.217
	c1.33,4.013,5.098,6.942,9.574,7.05c-3.526,2.711-7.919,4.311-12.718,4.311c-0.842,0-1.627-0.055-2.466-0.136
	c4.554,2.848,9.951,4.529,15.726,4.529c16.025,0,25.923-11.091,28.497-22.616c0.463-2.06,0.678-4.094,0.678-6.1
	c0-0.434,0-0.894,0-1.301C46.882,13.543,48.645,11.753,50,9.747L50,9.747z"/>
</svg>
